<mxfile host="app.diagrams.net" modified="2022-03-17T22:30:56.058Z" agent="5.0 (Windows NT 10.0; Win64; x64) AppleWebKit/537.36 (KHTML, like Gecko) Chrome/99.0.4844.51 Safari/537.36 Edg/99.0.1150.39" etag="O3rw0JrpbClZ-AtxQe6x" version="17.1.3" type="github">
  <diagram id="E02VxF8IZPdLhPR9Wf3g" name="Page-1">
    <mxGraphModel dx="1422" dy="762" grid="1" gridSize="10" guides="1" tooltips="1" connect="1" arrows="1" fold="1" page="1" pageScale="1" pageWidth="827" pageHeight="1169" math="0" shadow="0">
      <root>
        <mxCell id="0" />
        <mxCell id="1" parent="0" />
        <mxCell id="4J6jqHoMn3-eWlfdIwtx-1" value="" style="shape=image;verticalLabelPosition=bottom;labelBackgroundColor=default;verticalAlign=top;aspect=fixed;imageAspect=0;image=data:image/png,iVBORw0KGgoAAAANSUhEUgAAAOgAAAAeCAYAAAAmYlJ8AAAAAXNSR0IArs4c6QAAAARnQU1BAACxjwv8YQUAAAAJcEhZcwAADsMAAA7DAcdvqGQAAAyaSURBVHhe7ZwNbFvVFcf/WyVHQYmKlK2Tq0m1mDCdSCiaBcJxtyRoTYA60VqXDSdCSShKWuFaJfEKtrQ5FiOeKidUqSuw1y61oPFQYzoSl7Uuo/HAMaJ9kUhSKaSjNRvUoqo11gRKLVVv5z4/J/7Il5MULPZ+0s3zu/e86/txzr3n3Gfle19//TUPCQmJvOT74lVCQiIPkQxUQiKPkQxUQiKPkQxUQiKPkQxUQiKPkQxUQiKPkQxUQiKPkQxUQiKPuQ0GGoO/XQONxolx8T6wrwqax5zg4kLGIuQq/11m8bGIX3CjQdMA52h+DlbslAlVmho4R1Lad2sa430WNDzG9MSEQEzMl8gi3UCvcvC+YBQHjqUaNOz1ISIWL5sCGWTrilEg3i5KrvLfZRYai1uT8L7oAXZZYbhPJmbmGWuo/YXrUZzSgdipDrQeCgKb2+DoqEaJmJ8zt2Lg+mww1teI+qpBTb0RvktieSpxDt2/TMhYzkyLmSlc9cMk1jFblwXOM5OYviXKfAvM/tQvSg180o4wDZf6ES2Ud7LMOKJcMXQvN6JUEFoKbAetg/19PVwhQw7PLUQUQcdBHJ2uXNmEfseI9Lei+YNa9Nm1kK8RM1fI9KgXXX/2Q/HUMTTeJ2auMlyPBsbXdXCcbYN6uevKrSj85nrYQ0CJphZaZZGQHY9yKN7uQuO9wu0M8XPdqNk7CBTGEb+rDf1uHeRimQAz0G2k//dWo/FBVkK6/54PgYtxKHb14tiTyoTcCoieNKG+M0w1Z1CohvlVB7RpDUows4NOvn0U4RtytDgH4DC1oOVplgyw5mSct4sYxk4EMTn1f+/zpqHY4cLZ/atnnIyb/+YQOBfBlHi/+sQQ/YRdZSheyaZ/KYCjoTjkT7swsL9N1NcWGH6XbZy07GBowIf4RgPMu8jQLgQw/KlYlMkm3azuH+lFG9UVecWP8ApVL/qOHfaIHoP/cEF/bxuOhUII9bWhtN6F0F/1iFgtCERF4RRmDFRWWEx/Y4h9sUhLBDe4FXWiu5BwAyLZq8IMmTGpyPQk/I5Zd3rWNcmQH3XS51Z42ef37ahj7ke7n6TYahnOaotnJCWgEZ7VwPR6AN59dRQLaShWE8vmYPqiH917G1DDviPVvV+oHqEfyTbQMxYPuJQmLNpGBnPVei1o3kbxJslUbWtGd4i5YfOM3aJzMPscF+PgEdtctc0E78R8M5V4po5WeIZ3d6LuZD+nJ/xwWpJjU4W63d3wX0r5RtodBPmBILpbmMtpgv9qSj6rR3AjmXfFnvCildW11LnMRFYEQWNjsQV0T+TqEALvAPLKMlQ/QN4hjaaXXNdFWaPAPZvYhytkF0LOspgeccJyqowWBxVkIwFMPloOBSvYUI7qiQA4mQoGWyWGrDRfGd73jIEqtjRBuzYOX3stjIeokv+KBakwN5gMyRkuQPWzDvTsN6N2HSlLRzMsJ+cw//m4GoDl182wn5qCcrsZjgMO7NHIMH1DLE9lgxY9BwyoYJ836mE90IOep1TC5EyNDCJcWA2DnfJoFa1EEO49FvgyVsdwjwexJ/pwllYtwzxuW+yMBbomOwa/UEJnYX3bQ+7XNK29s2TVc2MczpZmdI0r0GhjbWhBacQN4x43xkWtWbSN8XF4du6A8TC5Zhpatal/5sdp+r66KQpkkNMchNFtphh1ixXmZyqw/moYTsN8B07FUD3VA+tvEq5chZHaS23RbhBuESF3L3aXHh1s/Dv0kF/0wd6SXZe3ZxDK359GKEQu2zoxM8mdKjQdsEK/kd1UwLCMuZxhQw2athYhfsKE2r1OBCbmiCtFoiGqmxza2oeobxtU0NL3R0+GMblobBnHlKCTxSi+Q8jImTgt7nv+okCnEIbEwQWvoFqT9GXlqHzkCoLsAE1ejU6bAl6an/FUO2Ax6Ey6Nsr32/S8WqXiVSo1r7cN8Je/TJZf50N2NeU38sc+Snnmy1HepSX5zQ7+vCD7Gd//DHue7gWZzPtkPTre8cH12XpmUqY8S+d5B2vTM/38Z6myM21LpOtDnfScije/dS2R94FDuFf94Sx/PUUuK10P8Z2bSW47fed/5iifp57L3kbKb+MHPp/NS7ahc0js2yJtTNSh5g2+y2lyiTTf2C11DtLlznexZ7W8a2w2LzN95jOQjIrmJqMsox8Tr+nT6ko+p39tIk0uu7655pfSYnM5V/ryGj/qs/J6Nnckq37Cyg/8M1NGHButix8V80b/pCV5Nd/5bor+/aufN1Adqq7z4nPX+ct/7+R1rN7nT/PXknK5JNIrx8OJtuWSKrpCM3qWfopbpIT2uV6c7nehrU6ByIAN9WY/osJKMwnuJFn6z2pRLq6qAmuUUFXR9UYEkQU8klkiGKfYARu3Q7vSk0f6zvAJN7otzWhuqkNNu0/InrqRvvuof6qkiGcBPhnHMK1ayu1alBaKeXOQXg/FxWHmeAZhmzn1JjdSbMOVmBjFLdjGaUx+yOqohW7LHCcEWeQ6B2W4J0VOrlDR36i4K+RIbBz+Pidse6kf9eTKv8RcxOy6VErBecudJc5lGmuKoNxqRu9b/XCZtFB86oetiVzrVEfiYhiDdC/fqibXNoHyoVrau8hbDHLZ7nFfa2Iuf1GFHft8uHJ3Iw4+V4HEEVSOkOva8kc9VBRnMq8rFBqA+SF2OMY+J9LZLh3UloHE/dsUnz6gRxd5FUk9SzdQEZm8FDoy1N5nSxEP2eH7UCxYFchtYAN4R8HKXqOQa+huaYDpeATyKgMMz7swuF8nFubIjSlSNXJkZLm1KC4sXDTgb53G6YzUsaVkCW28iSnBjmWQreJBz6pDIYmpvhVd75IBPm5Au72PdIMZ+yqx0rmUyVG6jQz1SBtKb4RhP86JBeRS/u2oMLfRw80zi6imyS3k4cQghjJDOXaK29wIAwtzjvTj9BEKWxZYtBdDdp8BbT9yIxF+lKBU/RG4iUQZY5L7COpS0hV2Km11Q/6sIe37Zgx0/JQPkxlu/A/WJl5oxONsnaGAeTNdRobACb0TuRXB2Ahd5WVQLun9hwJlW+hCMcewcJq3TCaG4KHn1Q3t0G9RQbVRjptfXBELc+SuMlTThfMPI7Lkd14lUN7Pdr1hcB/LULS2KD2xJXDRNibr8CF4Lmstn4PVmoPciJ0LIEw7pW63AVqNCqUbShD/fEwsXQWWM5cXAvBdzFDYO4sTr+BIX4XRjHMI9tOnwlJoyeiY4SWTTogDgwi8l+H2iae4etpxWTtWY+FU0OJRGbQIPyZRbCrHGJc8oCKP6MNylG2IY/wVC4YqzNClekbE7A76cTeaf1UHk8MN92E3nC+0QtcRpKBaj+pNTNuKUNFggLKQVqidRjgpyOZCfjjbW+GcKIJ2jw7KJXWG1dNCqjaO7p3NsPUFwJEC+BwmeC6IIlkUQc4OFt73wn0iDP+JIGKFxcJ7LO64F/5zHLlHdlo5U7U2B4oqoN9FrtkFGoOdNnjPcODO+NC9z5N+epqBsqYF6sIovPtaxX5QO066YXMEhJNJLKGNyro9qC5MHs75ET5H/TtsQ/eZueKF1ZqD+SkuWS9cfS+7EQh5EKA5KRBO+IFB6keY+hHoNeFgaBVXguXM5a1JdDfVom5ft6Cv7h4bWvU2MjkF9NUJF3E6OEhLH61bZPhm8TVMMrUZ9cLrw/CbQ4nd9HayRg6trR3kv8NfpEZ5OEymSXwyhjG1CsUnLehCOzq3slFIZ8ZAlY9aoX+wBJOnPPD0euAbiZPvbEWvO2XLvVsPl5vk7o9hsNME474uBG6Ww3CwD+aKHLx08ut7X2XfF8fwIRuMe7vwxqfrofihWJ6FArW/NUC97gr8DgvctGMVUFscpmqsv+qFfa8FRz8uR7tRLcrnjvLJXhzr0EMdH4azwwjjS28gsk4hKM68rKuG46gjpR9GdBwjk/6JQjiZZOO1aBvXVsD6eg8Mj1DMT4ppIjn3ezcpXkwYRRarNQfzIKMYqHNbKWSjHtheHMYUzX1RhQGO+lIUhJ0wmW0IFLTA3LDMWHMuljOXd2thrVej5OKgoK+eAYon79fDetQl/qoqitPHaYMhM9RvmeNHBj+uge5hul7wIpDict42aBc32CsxZA5gSjGMMfIYIrQxlXw1BEuwEp27aMxF0VSkfxomIfENwl67NO/2Qm5xofKdVtijtOAeSY87U5EMVELiG0b4yd+bU1BeKkbtPD/xSyIZqITEN04c44dMGPq5Q3TH50cyUAmJbwP2tmAJB3pzvgeVkJC4zSzxtF0yUAmJPEYyUAmJPEYyUAmJPEYyUAmJvAX4H5wwIojmxOn4AAAAAElFTkSuQmCC;" vertex="1" parent="1">
          <mxGeometry x="10" y="630" width="232" height="30" as="geometry" />
        </mxCell>
        <mxCell id="4J6jqHoMn3-eWlfdIwtx-2" value="" style="shape=image;verticalLabelPosition=bottom;labelBackgroundColor=default;verticalAlign=top;aspect=fixed;imageAspect=0;image=data:image/png,iVBORw0KGgoAAAANSUhEUgAAAeQAAAAXCAYAAADa3zz6AAAAAXNSR0IArs4c6QAAAARnQU1BAACxjwv8YQUAAAAJcEhZcwAADsMAAA7DAcdvqGQAABRySURBVHhe7Z0PbFNHnse/d5xelFNyrTa33Bl1hVUJl4rQrrBYYYI2Sbc43eJkl7q91onukrRVAlvjo4lL19ZuEx9be4ucwAajkhy6EHWJr0dctInpEbNX4u0mRoBRS8wtmGvrdGl928UqJWkp1iHfb56f4z9x4j8xC+2+jzR1PG/evPH8/szMb+bRv/jyyy8jEBEREREREbmt/KXwKSIiIiIiInIbEQdkERERERGROwBxQBYREREREbkD+BMOyCE42ytQUWGDT/ju2lGNikdt8Ib5jAzkWv6rTeionvqqArZzQkZabnWfpMpMZA5hH/rqK1C9zYmgkMVz2YXurXWoJhlWHxB7L5mvt15lZ7si8xE6pie7qYHt7EJOrVA6dGfpYnYD8ide2Hfq0PAoazhLNWjY7kBAuJw3RRy4paUoEr5mJNfyfw58Rfpk5pILNmMz6h4WdOjhOjTv9mBGuB4nCEdLtMzj/X4hLxnfvpgexutq3WmH9xOhwBxiRjd/WozzLOJIBndTEr6zQdq23QTHJQk0nVZoV5QIF7InfLo7OpjvS+8m/P2PU7urRaf/NWdmypPsex9tgHGfC/65hvP1YQnZUvEylH4FHX34nA0NCX4lnhrIVjOvmjIPyEEn9PU62NwBSB5qRGMzS7WQ3ZhJ40xzoQzKnaM4cbAR5bOebCHSlQ/CbTWiudNFLvfPkVz78PbAlLS1yQT7OxzkdYIOPVUFycw0bghlZrk8Add5kEFyCB5yLrDyl0DxuFDXI1IEjtmgqzfB/ZlwOYkiSDcIZSkpV7G8hPsprf4GXzB3uHI0HjyB0Z1KkoZAKAA/LZdlWwxo2aiAulIqXMgebo0S6mLquyNj8N0UMmPc9MNzlB4gaRJ+S2GYOWeHaXsDBsRB/o4geMwIdb0etmMXgW+rSU81UC6fhmfQhOYf6uGYuh2hwhn4XjeRrQ3cshVl2UYzRn/dj8ZVd7BTS0P4wgD0h6Ww/mYYhnVqWE+MY/yEFep1Bgz/xgrp4W3oyzAoZxyQ/b8+CM91CVpsw7DqW9DyLEtadLxKg4BQ5vYRwuQRN/zTt0MxRbJjBp437AigEh32XnToYjrUBvNPEwYxAf9xOxm6GoYXa4HrI3C/O59spahqEOrS92CkSw3uugsHj6eL25SgfHPsuS1QP8jyEu6nVHkPX7Aw/DEAL32UFZdGv+fDknIoGyTUBw6M0QQliUsejLDxeJMCsiVCXgG48XsvXKcDmBa+i9xGphzo3OnGzHINekZHccjcRnrK/O4wRl9rgwIedBvs8KdO1m45NxA45YJ3StSSJC47Yfz5NFqMKkiCY3DdUwk5m09wcvItLowFJVAZtwG2TjgvR29JR8YBmeOdSgihqxkGPT6s3TobkqypN8JGznH+u+aJ3c/44bTGQzQ1tDp3vM8upJSnVVdFRSvs7O+TFtSxsEC7k0rRTCXIwjzJbRk4m7CG5u+tgP51F+w7ovt8C4X+Zi450U0rhxr2jKRw/Qz8R20w1tfw9fGhU6sTgev8RSLeZm/Qje6WaLmaFhs81Jzw+1TvbF433EmbkAL/RzPSQb3wW2rmrT+pD3OWhcBlD2xCf1RvboXtZLoGEVT/gFHojzm/ORUOHB+xDWH6Kp8xPzd9cB2iZ26UY30lrSypxY7hsawiMdy9Msjp0/+HPOM24SC/8mjdXM33GR8a7PciNOvwfLCx/HY7XDF58OHkWH5U9/hw+lZeK+Ex1/F1RXUrk67MRaaopXV8GGPe5NC93zOCIGTQPCSLZtxkdXfPtj1V32f3NCnP2y+0nZ6vH/QLOhHVozqzh/9m30rXF9Hu/O5Jw80gXFZBj1kd+zzwDafuz2Z6Vlw+gYXsLW/5Z0Pu/eFzMpumhdBLWshTdjy4e9Vof46WQ1N9cJ4WrDrm044GETxOusD7z2rU7RiAN8H18WT0D3G/4nxLqIvp9ydO6CvqYDnJytjRyn6L4Hui20h6OBO3jWbbFGtAdrJIuwefjW/KKEMiWx+XCyyK/JMAml7VorwYCJx0QfY9ubCFxUH+PRlcJ2nEKC5Hyy/qEfgJ9dM8j804IEs3NkF1FznG9lro2N5FupBgLKztKYLyeSt6dhlQu5SE3tkMIwutZcsnLhj/oRmWY9OQPWaAdY8V2yo4zKRT3OUq9OzR0rqLWKlBx54e9DwtB5s+TJ8dgadYCa2F8na1oQpu9G0zwpEyM/H0DCD01CBOjI9D+4CQmULouBHqJgtGrsqgNrLftg0KLhauD2DscAjShk5qSw86npLAf8SC5v3elMGPZrOvTGB5Yyfa6mQIn7dDb9bD2O5C2RNmdDSXU54Dxg5H8sEgYnK/EXuvVMFg6YB247Jo/a/QzFm4Pod8ZfGZG6YmPexny1D1XAesP6pCaH87ut4VrscQ6h/8Qol21ucvqoBj1KaO+bYNOCh+oIWs2IfuZ5phGvQiOM/MIHzWBQfJWvldOUpoZqnYTJlvjWEibRg6hes3+OdL/ibPMNdVL0ZOlUL5I+oz0ru2DYD7gA7G4ZQ+O2nDwKcaDI6OY5w5xRSk36c+0fFaCdmTHbxeqJazb9nqSgIrFailRXLwqCe+EoqFq1epsJ6vNwzf/lY0756E9J/MfNtbyqdI33XoO5+ihVYaqKFEx4tkN0tD8Owjh8Q79FLIn6Y2PRkd4Ct19BsW0+687kllBu6d9TAd8aNsA60MLVpU/bEP7T0s9pBIls+assP080neBg1PprG3Ask/Pbn2RwAX2YEmSS0UK4WsFCRrlDQlAyYuJUeEQr/qhPGEBGqTFYb61bgx3gfdtoG4/uTkH+zoOiZD5wj91i4Vyu6Wo2lPBzR8myqhpd/Ss0eFnDdkMskilWx9UyYZZltPTgThfMUCzyWaoAgTnIbdvtlJLZ9ogu7b3RD9+2FaRF7ywPJKyiHQGOxf6sqYrpyLDJk0EYVcHpHLFRGNaTjyweex69ci4xYF5TdGDl1MuOfzc5FeFZXfYI2c4ct+FBl6jt1P3/kyqd9j9agj1lPX4vXMptTyLJ2JWFmbnhuKfJRYdrZt0XRtzEz3ySOGN69E805Z+e/yn52IXEsoNyddG4+YN1C5x+iZn6a5zlLSsy5EDjVQeVVv5Bz/PdZmTaT/v1PKUD+a3479zlg5Q2T0SrTcRw4t30bVq+eEMixdiQy/kFhuvj7MJIu56cIvNXQftWksoe8/PRH9/an1s9+XUE/0Xk3yM1PTh+OR3i2VVI7VVxlp+bczkStJbUn9bV9Grrxp4Ms32j9IKPdl5EwXK6eNDH0o5P3hXOSQLqo7vZPxcvOlOfezlNov1+i3s7b+eDRyhc8TdE1ujpy4llg2jQ4K+qV1fJRQjtKCupI+RftWFel9R8h7pzeiSqz7fw5FGul724ig2yzF2i7od0yXGn95IV6G2sjsWfWvcf2KlbOeEsrEUh7tzs4uEm05JV08FNGw9u0aT7DRa5ETP2NyTmnjgs8S5LOB5DZrw3PtLX/5z01p+zGnPpzHryWmD4ciWlam60z0e8ynvTAstDeazr2qonzSH94ucvXV6Ww6vezS2tQcO8hOFqn9l51vopRBhlnXk2v6YCjS9sLQ7Jh4piulf0mXG2Ny+vyDyNALbZGhDxKuJ6TsTlmXyKB6sR+jQ720wpMiMGxCvYFGeH7W5Yf3KM3m1tQKM3aBJTLIq+nzegCB9EunFALwjVM9Kx+D6oFFbubTMz1H+tBtbEZzUx1q2h189jStohJR3C+Ln4xNx5QPE7Rikz2m4kMR6Qidd8LeY4KOVn8Njzag+wJlBqeRPPOVY/W9wp+0Gim6m33S7PfB2NPLIOWvT2P6Cz5jliq5EJbkKcHqtSwwO4aLU9GcZPKVRQj+Uywsqkbl2oQeKZZBxu+3xhDqD/ah+bvxGWDDbnavH8GFVrJL5WjcM4rRQVrBrQW8tDpr3e+L99NnExh7iz4fUsyG6Eq+U0XrORa+myDtSIVmmZuFNjzajO5xDpU/taJxhXA5Z2YQGHegjx0SJFnWPaoHrzXTKQfP1lGf5Kme2elKMtJ1pHs0lx7xRMPW0XB1JZQborvvIZ+HDxm6O4VwKEvVQtuDoaT94NWyhLXM30v5EH/w2kJPj5JPu/O5J5GZ93ykUaT/G2KhPwYH2f2s1clk9awHSW6zNpzO3m6t/HPrDw6lEvqYCs0TdSKEiJDs75Lj2Yp1cvIScWQPVtF/g5h8j5XO1T/IcV9iuUKRURaJZOubGAvJMJd6ckSiQucmP4yCP5PJ74PHF+9IZqP38X6cRbOM8G/qhIrJNw3ZDcgCnKQcahqY+58vR3jcAseilvqphDHN1vB/XbS4V3jYe6EtDdAfDkBSrYX2x70Y2aUWLubI9Wk+rFDKpW8Re1/u8a1dNDzKodnSjpcP9qNtjXAxI2R0eRj29Gcf03+lKEvZV1osYSGkVZThkFCYbR+saUP/mzS4pqSWVdEyC1GyXEED8wismzkEBvvgEuI2wbcccLM/3jIJe/WUaoxwsbwLdriZA0sidkq6DR17enGInm9+ZB4tzwgZSn8rGna8gcCyKmi3GNDrsJLpFo68deWe9fxJ6mjYWthjf6gK6+8SrgtyU++aK49R09xDc7mST7sXZxdRbpDt8fxV9CNG+GbyEFaIZ91q+efeRinKK8g5BCcwmXbiTcuX0y4aXjnIEydZaZi5Gh0Ylt29iAOGt5nsfFNmGWbr4/KBW6dFO7r4sD9XLkfpSa+wrTgD3+lSyMs5smEjlWiHdt38jj/jgOw75pjzztvf3hU183CYGYcU922gj7Nj8CYGxW8GMHmWPiWrIcvKK0ixeiN9nB3BxDxKmBUXxjBA9ysa2qHZKId8pQQ3rrJBLA/uXc2v0LxshSYIM04InuMeUgM1tulUUKwth7QsjODvhMsFYtKfsDZkffo2dXLxakjTjj35yoJmqfczJaH7Ege+z7yY4A9wxIjJiAaHL0pQcldy4tIqegjuI57kgxXkSMrKWENo5sr71wAmnGydJ0Xlk/FXkfj0CNunC+Lgf6UeoImdklZDyfo+NkDlhR9j/dTP6zRor1dCvlYGyY0Q8tSaNCxGVySoeaKSumAEnsExfo9dvalqdhVUJltNJYAJ70VwKfIoKcljxpdEPu0ujF2UfUtKWkIamXig7WYQXnfiHnKhbPBWyj+fNtJAq2oiDfeh22CDN8X/zlxywEarMazSQpUyCfb+LnZQjxEmux+jz3Isv4f1ZqF89VzKvsUiF+QX3o8/PfT7uXGt3MnWN2WSYbb15AuH8i1mVLmNsL0vQ9UST1Ru4Ul4byoge98Go7sK5i3lvF7PR+YV8nvdaP5hHfTWPvQd6INtZyvUnbSWWa6Bkg+5lqCygR3a8cDyjA42msl7x52wtbfCdqEEqm3qLF/NYPW0RJXwGXb4xwUvzQIdVj0GUl/7mKUEEnbA4KQdfeT0nUfcCBWX8g7Ke9gO52kvPEcssBxO1L4cKKmkGS3NQM9THzxjgv24F97jDnTvYO/gFaGUn3SOYHCQfjO1dcCwFx4+HF04/Pt10O1zwiP0aTf1RfmWx6JH6ueQvyzKK5kDCKJPS2XZfcftMP6zA6GkQyUlUDzRSOUS6qc+dh3phv611AEzzvRv9airbYWpJ6pD3Tvq0HqAZpIVaqxnrxtdcMPOjOShRhhnX4sS0ostwvu4pA/Ji6MCIoQI33XAfpRkPO6AxbrAIZOcWZyusNB9JZPNfjvCxWpUrkkQ/goVWmg1FXxdj9ZOO1wkDybzvp3dcM37D6Wkp7RsGf/peLUPrvEBuM7n0+4C2cUqJZqW0zzkQCtae+L6PzKduIVTKBu8lfLPs40rGmE1KsBN2aEj/9u600a2Y4Npax1qm7rh4SrRYVJDmmrPxzqxjfUXPcfe2QrjkTC4zU2o5V/rK4SvLkUZvxhwYO8BFzyvufgtE4lMzvtdR08n7yddg0bod6cewMuP7HxTZhlmV88iWCKBytQOdHdh8hsheH1hhGnxEvimH13dQLtJBUmG/s04IMu+3wHNd8rgPzaAgf4BOM6GIa/vQH9f9Ig3zwoNevuo3LdDGDHrodvRBdeN9dDuHYShMofYKilh/2vseWFM7DNBt70Lb1xeBuk3hetzkKL2BS0USz+G02pE33sciqgtVr0Syz6xw7LdiIPvrUe7TiGUzx3ZP/bjUKcGivAEbJ00OO5+A4GlUlI+Uu5tVmgeKIJnnx56swvc0wZoCrznojb1QHl9BJ07LLD7pVDqe9G1eYEwVb6yoL7v2dsCRakfdnYCnCYx618yoDbFcXCrWqj+NiiXB+Bg9W/Xw/arK5Cu4K00DWVQkBNQymYw8XpUh0Yv0+r2uR4MWZiChuH9z4NkJhzUdfGV3yycHCrhfVyHe96z5YtEBs0u+k2kR3azDsaBKax/nvRKuLp4Fqkrd61HDYtMENxmmv0nTcbKoLQMwlqvQPgUOeztpKMvs3e5l0Oa48DErdXAvJlm8OcGYHp5AtPF+bS7QHaxRIbGvT002SiF/3UL9C+PILyxB4YfJC7hCmWDt1L++bdRssmKkYNR/xt028l27Bj7X7In5n//wwxlGpOT67rQUjoGi8EE229DkD9LdvY8DezC9cX7ao7s2Qz1Kg6+fhM6356O2uxK8rtGNcqvuslPGuH4eD0/YSgIWfmmLGSYpY9bFMXl0FqqEBj2YsQ7iUnvCLzDAVRZEsbLBRD/f8giIiJfGXwHqtHaL4fhiBWqpUKmSPSd3612KIzDsG7KM+4sUjDYv07Y/C+TNFmZweqX+qHN8qByToe6RERERG4b1z1w/Xt4UXudIiJ/CrgHtLA2l6Gs2Zr1YMwQB2QREZE7kBBcO43oHmT7odFzCjq1Ho7rHBTPqgr6T4aKiNwKJI+YYd4031ZeesQBWURE5A6kCMukwOThLui362CyjiIkU0K7ZwjWR8TlschXgDwmjeIesoiIiIiIyB2AuEIWERERERG5AxAHZBERERERkdsO8P/7cSAmO+dotwAAAABJRU5ErkJggg==;" vertex="1" parent="1">
          <mxGeometry x="40" y="40" width="484" height="23" as="geometry" />
        </mxCell>
        <mxCell id="4J6jqHoMn3-eWlfdIwtx-13" value="" style="group" vertex="1" connectable="0" parent="1">
          <mxGeometry x="440" y="80" width="531.1800000000001" height="230" as="geometry" />
        </mxCell>
        <mxCell id="4J6jqHoMn3-eWlfdIwtx-9" value="" style="group" vertex="1" connectable="0" parent="4J6jqHoMn3-eWlfdIwtx-13">
          <mxGeometry y="130" width="531.1800000000001" height="100" as="geometry" />
        </mxCell>
        <mxCell id="4J6jqHoMn3-eWlfdIwtx-4" value="" style="shape=image;verticalLabelPosition=bottom;labelBackgroundColor=default;verticalAlign=top;aspect=fixed;imageAspect=0;image=data:image/png,iVBORw0KGgoAAAANSUhEUgAAAiEAAACnCAYAAADHYYxrAAAAAXNSR0IArs4c6QAAAARnQU1BAACxjwv8YQUAAAAJcEhZcwAADsMAAA7DAcdvqGQAACXFSURBVHhe7d0LeBTVwT7wl1sCSBAJQURQoygqEsEkAon6h0gJ0AqIqJSgTxsoAiogWLQl5Pnk0g8R5KZoLeD3aYhcLCRQLlFY+KgbgokCQdFUJFzDLUEgECBc9n/OmbO7s5sLG5I4SXh/fabuzOzMzpwNe9455+xsLYcAIiIfzJs3D5s2bdJzhldeeQVRUVF6johuVPvzj2H3yf3ouzpeL7k2hhAiKhNzEGEAISKnvAtncNuC5/ScbxhCiKjMZBBp164dAwgRKUfOncQ73y7DezuT9JKS3dn4Vuw/c0w9doWQ9G1pagERERFRWbR6oA0eXjocpy6e1UuK9+IDv8GCJ8fhNyvH4/8OZ3qGkCdSJqgnVUWZL/+vfkRERESl2bxvu3706/hT6FPwe6+nnjM83OweNU7EGUycAWTy1wlqkmqr/yciIiKqQDMfH470599XYWRh93EqgAzdONMVQCSGECIiIiqXA2eOo4l/Iz1nGLD2LZwuPIf0ge/jhft/owLIJz98qdcaGEKIiIioXA6KEPLcvV31nEF2w3RfOR6ZuXuLDSASQwgRERGVy8FfjiHu0UF6zk0GkbAlI4sNIBJDCBEREZVLfmEBdh3fi6U94/QS3zCEEBERUbntyzuCVjc1w9JeE4qMD/Em1yf97i2GECIiIqoYO3J+gj/qYlfMArwROlDdmMxMzk9/7E/IevF/0CGoDe8TQkREVNP82vcJ8eZXpx5aBDTFXbfchlaNg5B/sQAB/g1x4sxJBDRshMD6jdXzKqwlpHatWvCv64eG9eqjQV2Rg2rXQS2xrDjFLyUiIqKaoPDKJRw4dQxbsncgceeXWP2jXf33xE8HXAFEKlcIqV2rtgge9VS6ufWmpujQog0i72iPR1s9gOAmt+Fm/5vcgUT8r74IKfK5zRo2QdMGAbhJBJZ6tevqvREREdGN5Lq7Y2QrR2CDxujU6kH0f/D/qfBRS4SSy1cvq1YRGTiyThzE57s3w7b3G+Tk5yK6zaP4Q8feaH/r3Th/6SJWZ9mxOPNLfH88W++1ZOyOISIi8o3V3TEl6XA5COGdOuu56wwhN/nVx/3N7sQLD0fjgaA7ceZiAXYd+xkHTh8T4aIQdWvXRtBNt+DBoLsQfMttOH7uF+w+sQ9P3h2GE+dOYcfRn9DYvyEiW7fHN0eyMGfrchw8fRxXHFf1KxTFEEJEROSbGhtC5JiPewNb4S+PD1YDTr7Y8zWW7NooQsQxFFy6qIKEbCWpV7sObgtohp5tOmFo6O/E40BknzqCCV9+JELIHtVF82KHaDz9wBN4/+uVSPphCwqvXNavUhRDCBERkW+qSwgp85iQewNvx/jHBuGhW+/G1P/7BO989Zlq5cgvPI+rcLgGo166ekUNSvnfHevw5y/m45cLZ9X80bMncebiOZw8fwarfrRjv1jW74HHUUeEEiIiIrpx+BxCZLi42b8RBrbvrrpY4jb+A//evxMFly+o8R933HwrRob3Q8Iz8Uj6/d8wI/pldA3uiKYNGmPXsb2YnboMbQJb4Ym7OriCiuya+TF3Pzq0uFcNUpUDXaueb/BBs3n41TNlxjzcN+MbPVNTyLJsjQ8y9Ky36z3nGllWREQ1n8+1fh0RENrdGoyQW+/BtkO7sWnvt+p7v/51/NS4kClPDsVrEc+jR5twPH7nwxgU0h1zeo/C65EDcW/T27FhbwYuXr6kBqUG+DVU35YpuHQBR/Lz1L7l94hlF015bZ/RGq+sOKHnnE5g9ZBhWJ2jZyuE3Gdr3CcqVdf0a1aEsuI1v3ZlBqWcJLxSIfsPxYjcgxgRpmcrlfH+FBd4TqwYdv3vVYWVBRFR1bNt3WYMC+ujpjULluqllcfnECIDwu/u6wI5hGTxzi9x+uI5Nf6jRaNbMC5iIHrd11mN+2jk1wAN6vmjSf0A3BvYGjEP90Bc1z+goPAC9v1yBEENm+CWBgGQjSFye3m/+YtXChHY8GY1oLV66YWZmQfxH1Gx/if3W8z8oV8xAajiqUq0J7BUva6e1gPPN6vooFWdBaHzb3th1mbvsHECaWuAmYNC9TwREUl7dv6An7bvxvv2z9X0y/E8FUoqk0+1vmy18KtTF0/eHYofTuzHvlNHXMt73ttZfU1XLr9UzMBS2erxUPNg8bxOOFd4HrVF0JDdN3Jr6crVqyqMOO8lUumcV7LmlgSvq2LZmuJcV2LXQRFBeGrEeHyx94CaM1pkklT3w31DkkTVp8OD8zWLBAajq8JYV8qVtjj+t4a1FwHkVXTUi5SwV2H/CBiXaJyL8frfmFprvF5PlYNznbn1SB6HeO4Ko3xemTEN94W8ii8wXYQc/Ty5rT4ng6mlqZjyLbJv13GUds7mdeZ9SL6VVVDn3ugxLdVzfcYSjENvdG4pHnuUgXs/RctOr5Pn5F0W+vnO43S+10RE1U1Weqa4eOuGev5+apKPZSi5dLEQ507nY86r/6VaSCYNGo2j+w/rrcrHpxBSt04d3B4QhJvrB2DPL4fVV3LluA55wzEZMC5cLkT2L0fUYFRv8nnyhmb3B92hvi1zVYQO+XxAfSlHBJJ68K9TTwSUCyqM/DpEJbI5otgWDBkUnkeSq4Wh8+Z+mKXWlN0Xw8T2cj8L+yFIVGCRKjzolovM3kgJcVZ8shLvB6zX63IjkNZzulrj7UTaWnzxZoRnANG8K90vhv0dmKz3ub49xrleT1TiojJt53q9bxG95hFT4FqHcXuN8nnv9TfFsc5DD4xXx/5e/yD9nNKYyldsi2ETimmhucY5Z6S613nsw/eyQstIRPedjjRTkNy+eTp6/DZSREZZBmsR7WzJki1JpgBhLrulb4rzkUFVBL2iZfEN0lx/L+JvCa/iLY/ARERU9cmgcaHgPBo1cd/NVD4+f/acCiAr3/8Uvx36PD7KWIX4xDloceft+lnl41sIqV0HLQICRci4jJMFZ9TtWGWbxc31G6Fpw8ZqcOmxsydxuZgQItWtXRe3NQpUX+3NO38apy+cg/xisAwfcuCq/GaM/NbMZRFQfh2iEnnd2RyvWzDW2EUF9A0+H+bZVN/x9SS8ph+XTlRqojJ8rat72x4fDdRhQVScH4h1602tFy37YYio3FQFqa7O52GAa6xEKEasH68fF9Xj7jv0Iy8tW6Odfij1+GgqnpJX/FLYQMzUFfKJFX/HrDeTTGMzjDJwd130Kmd3hal8VRBYh0PeIeRa5ywqfNfxqX3ox2UqK+/zEoFhWi9Edw7SZfCSqXwi8FryQRzSs+ay69hV7P+Hg66A4km8vulvSXYBERFVN4UXLuLkUc9PuQARQho0ukm1itzSPBB5Ocf0morjUwiR31ppWM8fFy8X4qIIIIZa6pbsdWrVweH8XGTlHkDh5UtqzIg3ec+Qe5rerlpU5DdlTl/Ih0P8T4aYe5q2wvGzv4gQkqfutmoJUXn30A+B9mjlrJiuaR3GhTib4o2r85IHXfYqst9Wd/fC9wf0m/5Aa1GF+cbZ5VNEzkF837c1WulZT0Fo9YB+KBQJMrIMSqxoy8PzdT2Ues6yxcNZto9gXLJeLJWhrFS4mPZ3oxUlI9UzeEzrp/dvvH+zsKtoWJI8/j6KMnezRQ5bp5cSEVUffvX90bSF5ydr/qkzqiVE6vHC06prRnbHVOQ4Ed9GgopgcVVM8lss8pbseiHOX76IK1evoFG9BvhXVip+yN2Pc5fO6/Vu9erUxYPN70LqgV1I2fO17ogB7m7aEvc3u0N9c6akVpSykhV70Ur6AA4llxIuROX9hati86qIZMWuHxZlHph6rW99FG0NOLR3Hdrdod90rwBwQpRVcYod56CprpoSK+gTOPSDOwgVKSOPMviVlHjOMoA8gkMjnGX7LWY6W0IkH8vKEIrOb65DStoJ1RXj2VL1reu9M6aP3AHFRzKARO59ybUP+0dsCSGi6un82QKcFcHDST6WLSEyoMjWkMF/HakGrMowIgexVgSfQshlxxXkFpxG/Xr+aqCpDCKywUPecEwul60cMmhM3vw/SMzcgJ/yDuHUhbPq92Hk13jl78b8K2srZm9drm7hXqd2bdxSPwAxIT3UOJD1P22rsBBiVNL6ylfbPkNc5XqMo5iOhebBkq5uFKPCcg7ulLYnyoGI5aW/qdHTNIgyJwkLp41HZxlcVFfAq/jcNXZBdguVcEWtu3Ge9xqQqSpDOebE1TUgxzUscT3nxIoJrgGZRhn1M40B0d1Fpgq6VLLbJ3kt0nQZq32bWyp8Ueo5y9BoajnKsSPFuf+ylJUmu1O+WDPBXd6CLIPix6qUjQyS7lYl+c0btoQQUfXjHIiatmaTGh8iJ/nYOVDVqaK7ZnwLISIgHDp9XI0DkV/DlV/Bld0pcoDqd8ez1W/JRN0dqsaGTP8qEWPXzcOSXRvw7/2Z+OLnrzHTvgQTN/5DrD+gxpM09r8JT94TirCWbdUt3OUdVytsUKqopN9TgzCdzeyt8fwP82A3Vc5yzEI0Juj1/fC9uCJ2tmJ0fN0YqOrcNq2rr2NCShfU/yNxlbxLfatC7TvkIIa4vuESihGZ8/B9T72uWSo6lzImpOPr8orbtC8xRa7pDbvXN2Z6fCSO37leBhQ5QFaukGXk8XpGq0OJLTmu4OP8RkgoBshv4ugyfgsvebZU+KS0c5bjPEzv4cSDaOfaf9nKSlHBZZ3ngN5i/k58uneIV1nIMUPthj2i9zEBhx5gSwgRVU9tHn5ABYyXIweo6d6OD6plMpAk/G2+6/4hUqdeXdV/y8vn346RwSPhmYlqUOlbmxep261L8kZl/9UtFm2b3YGX//UuMnKy1NgQ72/bOseKyB+uk4Hlb92HIf3Qj5huT/x1f0VXfi3TIwDUTPJrowvv/tbHb7MQEVFNUuN+O0bez2PlD1twT9OW6H1vF/X1XNmicetNTXHnzS3Uzcbe7fkqBof0wB03N0fdWsbdT2X4kN03ASJ8tAu6C288FqN+/G57zk+YkboE2b+Usz2ciIiIqqUyhJArSD3wneo+Gdj+Sbwe+Xu83Kk/RopJ3n79g69X4udfDqt1f3niBYx89Gn8vn13PP/Qk3jh4Z4YG/E83ooagtCWbWEX+3nH/hl+PnlY/fIuERER3XjK/FP+DzW/G4Mf7oHftY2Af10/ZIpQ8vH2tfjy53S0btxcdbU882BX3NesFS5cKlRjR+R9RuS4kq/271KtKV8f2o2T8mu6uovGF/wpfyIiIt9Ul+6YMoeQerXrqlu4y7ugyvuHyPuGFF65rMaByG+9yPVynfyNmNtvDlL3CJG/MyN/xl/eFVUOTJV3Vr1axoGoDCFERES+qXFjQpzkXVPPXbqAk+fzkVdwWn0FV97ETLZ4yNYOee8QGTqyTx1Rv7Yru152Hv1ZfTXX+LG6S2UOIERERFTzlDmEmJXUmSIbV1QguXRRjReRIUXe7IyIiIjIqVwhhIiIiOh6MYQQERGRJRhCiIiIyBIMIURERGQJhhAiIiKyBEMIERERWYIhhIiIiCxRTUII7zFCRERU03jctt18K1UiIiKiiuSdNdgdQ0RERJZgCCEiIiJLMIQQERGRJRhCiIiIyBIMIURERGQJhhAiIiKyBEMIERERWYIhhIiIiCzBEEJERESWYAghIiIiSzCEEBERkSUYQoiIiMgSDCFERERkCYYQIiIisgRDCBEREVmCIYSIiIgswRBCRERElqjlEOSD9G1pCO/UWS0sL7kvIiIiqhkqMh+Y91VpIWRa9mo9B/Ro8yheCuur54iIiKi6qOh8YN4Xu2OIiIjIEgwhREREZAmGECIiIrIEQwgRERFZgiGEiIiILMEQQkRERJZgCCEiIiJLMIQQERFVRwWnMXPGCWwt0PPVEEMIERFRdXPpLBLnFeD1nZcR8ZfqG0QYQoiIiKqbeo3Q/7d1EVVPPD5ZfYMIQwgRUaXKxOywMMzeoWdN8laNRtioZOTped+JfV7XdhUhD8mjZosjKIcdszF6VQUevdjf9ZVj9Vb/oSCsGVu9g0gVDCHGP9gw12T8sat/rE+MxvrjxrMU1x+e9zbGpP7IjydjtGtZBKKHzobd4y+1EOnvRIh1cbDl60WSx3Zh6DZgPGanZCH/il6v5GDZH8X6PouQpZco+ZlI+POz6Ka3jXhz/Q33j4OITCIikb3Fu9rOw1cb7PoxlUuHMciY2xeBevZGUt2DSJVtCRm8IAMZGXIagxC9zA/pmDTHBnNWMIRgjHpuCiZGuLed00f/SUZMRIpcv+1zjGy8DKPfNe2jcCc2rX4MUd3Xw7bNa8/O7VI3YXFcCHLeiUHsPzJFbNEOfoX1V6IQ1SQJ9v/oZWLPtlnDMb/BECzeYhxH6rSeN+Q/DiLS2gzBECxEssdF1KewdZ+IwXpWUhdbzosf15W9bHnQy9RFmbzoikVC6mREh40W+zRaJpLVtnLefFEm59VOkDlXPF4lLtzE8qKtMqZtnK8rL8TmJrtfWy2XrxWNyakJiHXuR7VqJBvbz830PAcx72RePnuLXihkztXPFZO7daSY4zHx2Jc8BnGss/W25vN0rfeinrPDdKHpPE7zOevXLf49EeRFsPf2pmWucylmWbHn7FWOZVGtg4j8FV3p67St+lH5yX31/+yvrunD9CS9xhc7HbNCQx2ztutZLTd5lGPUknWO95/p4njbftFYuH2WI/TVJEeuMSfkOpJe9dr2WJJjlOk5cj/mbS7a33aE/nWj4/CXExyhb6xznNHLvbeTLqa97egSOsGxUT9p75JBjqcW/ej4cdFTjqf+8aOxUGyx7rVQx1Mf7NTzRHRjE59p8rNEfl7NcX4uyM+qWWKNXicXeX2e7ZwT6hiVnGt89on/ejJtp/ZlPLcI+TmmX1Puz/36Zs5j0cRxqH3JbUNHOZKOGYvl9sZna9Hnh4aa5k12ztHbq325n+M8N0/u/bpfqxjFfDbLZbP0/jzOs7jnCuo5XuWnXs/rnEt6T7zPR5HLTOVrnLusz4ovG4OpLEspR1+d33XcEfXHHAcGi2nUcUfqOb2inCo6H5hV2ZaQhKE6KZqTZ4NwDI17DunT5iP9elJeYTY2brAjuOP9umUiH1+tWYae3cLRslMUem6wwX5KrSiWX3BbhIuEvu+InMvCpsX56BfZFm0j+wGr7MhSXTWBiHoxFgGJwxE9dhHs+4q22xDRDajDC5i4xyY+QYTjX8HWJsrVyitlbknA4Fh3l0LIwInAvsMI7BwFTIou9orebTCGOFt+BdfVe+/JsO/J1p+hkZg40PyKmjwW3bKhthmaID63DhvrXhyCvs2NhyFPmNtsPEXGv2A6F3crRuwndmTniONJswGm53jsy9X1LVtYspF93FifMNTdiuOh+WOIwmREl9haYDpP+dw2xkNP4jlxzrIOxGPdI5F9QNc0pnMu6T3xPh9JLrN/EmuUoevcQ0R9IMrWuzWnmHOWPMuxAlzxGD9QJVX97hivfj6/DiMxvqsNkz9Md3eLXItqthRveMRwZHZfjkUvtjWWn7JjfUokwkMCgIBw8Ydow7otHn8qxQhAIz/xn912JJ2KQtg94vE9keiHBVi3Sz1BHePiNR/jtbvSETegD8avFf8KiegGJyu7bCxclYfMJTZEFRcIitO8L+aIz8KoLbLS8mFA6I7ZiN43xPj8zFjk0d1TImfXs3Madb1VoeyuWYjgtcZ+UuIj9fKSiMDSOxtD9OsuelEvlmM8MuKBKeKci3THBKLvXPH8J2yqsi89nP26IuNT3GUopjEdRHAZJR7HiRwpjtXoeinhnMvpwncn8Nt3L8N2Scw0rYvU/w5Cl4A6xsoqrBp+O8YP4cMnImrzdCw40Azhemmp9D+wlHefRNbcBKTrxon8bTaI7IrJveU/7m6I2wDYV25ESZEhf7sd9obhuL81kJWahJwCkXA7iW07xWB+TiGWfWkKRgFt0XPUB+I1o2CblnTtDw4iqvEC+wxB8IZJWLgnCo/pq20ndfW/yF3hZi6ZDNx1u54zKrNFL7qvmkuSdyAbkc7tdtiQYDwqWfNgBIsLtU8rpDI/jOxUsT91bu6Bt4F3BMO+4Sv3uW3RR3VcnE9EMIyjzYTtE/VAk2EjBRORLfZaDBlUFgx2t2CUiR22NNfR4NNJQFRn8+WuoaT3xGid+tTjc12do9cyFxkk1xqtKKWf8/UpNoA0NNZVddUwhAgiCIx8MxwJM+Zjp17ki8AnxmDigEzETZLfVsmDbY3NM7lumIKoXevx1UG9gVNBPnK2zcfoqeno+9YQhIg/nHWf5JoGz4rpk5FotnoTdpqbZ64U4vDxXKBJffjrRUR0IwvBC92BYFMTv4uoVBe10a22YorFIjW43jwwMhbOroIQRKnnFu2yUEFnUrSxzRbZUXMtIRgjKshsZxe4mEpvXTBadFwDUz2I84s31oWFTUJ2G90S4nVuNudRicp5iGu5DdCtAu6Bm9GwdffqonB1ZYhpKDy6oXwXieB9k/RrxAIL5ri6YDyU8J7I4453naeYZNeQeG6KeZlrELGe761bv0o45+tVnQOIVEsODJEP0relIbxTZ7WwvOS+pmWv1nNAjzaP4qWwvnruWuSbFuuR3mVl/8KB0ZiEePc3XlAI+7SuGJ3zBlJcXTbGyO3sWKMZTJF/sFOAeOdzCtIxe+Bo5MaMQM47Gei71vzHl4/1b3bDpx2XY3G3TIyW/alqeQCCu4k/nD8NQc/7AlC4bTq6/tkPH24agxBna9eVLCx6Oga5b65G2Po/IG5tnjhCPwR26IeRfxmDvvfIPhwiIrKa/HZM9sASgkc18msFkIrOB+Z9VcEQQkREVHlqRAiRt21/Nx8x34nHldwCUpkhpHp2xxAREV2nkFHVvxVE3rZ90KsNMePh6tcFY8YQQkREVB01vBnjXq++AURiCCEiIiJLMIQQERGRJRhCiIiIyBIMIURERGQJhhAiIiKyBEMIERERWYIhhIiIiCzBEEJERESWqLTbthMREVHNUFm3ba+0EFJR+yIiIiLrVGY+YHcMERERWYIhhIiIiCzBEEJERESWYAghIiIiSzCEEBERkSUYQoiIiMgSDCFERERkCYYQIiIisgRDCBEREVmCIYSIiIgswRBCRERElmAIISIiIkswhBAREZElGEKIiIjIEgwhREREZAmGECIiIrIEQwgRERFZgiGEiIiILMEQQkRERJZgCCEiIiJLMIQQERGRJRhCiIiIyBIMIURERGSJKhlCMueGISysD2bvKNRLpDwkjwrD6FV5er781OuMShZ7rjzqNeZm6rkKdDwZo8PCRBnpebPS1hEREVURVbclpGEulk1JQNYVPX/DyMH6+FjEra3MaERERGS9qhtCOvRCL8zH/FU5esGNIhc/rs1E/mU9S0REVENV4TEhIRgcNxjZs+bDdkovMivIRvK0WHQLk1033RA7LRnZBXKF0W0TNnc90t+NQURYBGKm2pCTsx5xvSPUc0ckZsHd0ZOP9E9GI/oJsU33EUjYbaxR3SjDZ2P+hGhE6C6bvIxFGK32EYHosQnIzFdP9ZSXjkVjxTbiuLq9nIAM87Gbj7l7LKaneAesTMwOi0WCeGSfFK27ioyWEXV8+nWz1Hlq2TZM/2M3tU6dZzEtRzkpcYhVxx2GiN6jXedIRERkpSo9MLVxh5F4o7cNsxelm0KDlIf1cTF4+3hfLNqSgYwNH6Ln8bcR877peVt+BGI/RsqHz6FwZRwGzDiDIUmbserNEBFOPsVXzgCRKirukClI2bQJi2P9MFsEj3TnTjKy0Wx4ClLn9kXgfxZh+LQzGLw0FRnbUjCl1TIM/7DocSW/NQJJzd/A56kZSJnQErkZepUIO7apsbC1nYJNGeKYP+6JwxPisOygXq2EYIwIOoPFo8j4FGTI10UAQmLfwepNYpttH6LvHhGMNru7amwZhXj275uQumoKHt42HnEri7YcBTw4BO8kieMWr/thn2zMXmBToYqIiMhKVTqEAH6IHD4FIUnTkfCfi3qZkJeOdVuaYejwvghuKOabtEW/Af1QuNQOET0MT0QhvIkfAsKiECmiQlTvXgj280NLsTxSBIL88/p5EX3Rt0MAUCcAbbuLdQWHkeNsvYiIwpOtjYeZtgXI3peAEd3CENZJtqbkoPBgjtiTiTguW2pL9OsfhZZ+4uhbRqFnd+c6O5JT8mGf2ke1SIQ9PR12ZCLnmmnAHxezlmLSqBjEPDUci2TGMHXVRD3bU5yX+7Uyc3L1Gjf/wiwsnTICMYOiMXyB2MFlU1kSERFZpIqHEKFJFEa+1hLz/zsBWR7NDgFoJCpfDw29F7g1ayaCxrWIyt2zZcNL9HSjFcM5qZYKkyuycvc8roseYztaYmSiaXsxjemgV5Ugf5Ns4SlEr6mLsXjtakyM0CuK4flaWr4Nb/9xPgp7TsfixBSsjo/UK4iIiKxV9UOI0LLPSIzMX4Zlzq6NwHBERWRh9lw9DuRUFpI+T0LwoMdwv/EM3+2wYePufBQW5sC+OAHpd4UjpLleZ3J/x37wS/kAC7cZbR+FOXYs2+TVjNE8BOF3ZWH5cjtyCgtR+HMyEpL0usAQRLbPwYIPxTHLpHMlH1lL16Pol3cD0PJBIPeU0aJRmJ+LwibNIDNU4b6NsKWqxS72L43Xyt+9TLyWH/q2D9ZrtPP5yC0IMEJYYTY2brDrFURERNaqFiEEddqqQaot9ayo0dF36iKMrJOAWDlgs88o2O96B3P+FIKS20JK8GAwzq4cjq4RfRC3OxzT5w6GVzWu+HUag8Xx4cicYAwCfSp+HXC7d+tKMJ57ezzabvoz+kREY/jyAET106vE0T834wMMxXzERIhjjo7FwmMBuF2vdQvGYwOjkDM3BmFj1wPdh4jzXIiYTt0wfIM/wr1aQkJuycbk3hHoNnwhMPRjvNHN65ia98KQ4f5YOCgM3V7aBP/ObAkhIqKqoZZDkA/St6UhvFNntbC8KnJfREREZJ3KzAfVoyWEiIiIahyGECIiIrIEQwgRERFZgiGEiIiILMEQQkRERJZgCCEiIiJLMIQQERGRJRhCiIiIyBIMIURERGSJKnXH1O+++04/IiIioor00EMP6UdlU5n5oMqFkIceaqfniIiIqCJ89933VTKEsDuGiIiILMEQQkRERJZgCCEiIiJLMISU5FAinqk1FVv1bHW0dXJtPPPZUT13Y5NlUesa7+fRzwag1uSyv+MsZyKi61NNQ8hWTK0lKxX3VGUrgbSpqPVcIlhF+Uq+twOQeEjPEhFRjVWNW0L6Y/HBq3A4xHQwARjUElPT9CoiL10myr+VCeii54mIyHo1ozumVRSeeRb4Nttob5DN41PTzK0lpmZ42TJhakHxCC6qC0avaz0YK/TiIl0zRbpqjiLxOfc+jZYP/fpdJgLLB+M25zpTc7/RReCcPLsKPNf53jJg3i4iXi/UPPbpa+uMuUzE5G5xkucnjtlcnuaujBK3k2UlzifNtF4fi3F8kYgTJR/T2rmtLpdS3gPZjfLMZ4nFv9/m4yjmnFUXjF5/2yDXOy54t7aZ9ilcXzl7/Z147ZOI6EZTM0LIIRv+ubw/nnm8hV4AxHWxIUq2kogpddJEzJCVoKwwxaVwql4uW1C+7aIreFlZtV6BZ0ytK/2NXV2DrFhaIqa93dhOTssGoYW45p4gH2+dDDybgCPOdRONa3FZUUXAvc2RxO2IcFZY4lhm7DJt4/gcg1qpzUrlvc/USXqFICvbGW1yXOuOPL0CL1+rC8u7TBx2POLR4jQREe8G6+O0Y0r8zOLLssh2ImS8C7yv1uVgMQZjoVhntFaI/ZhbuXxsvVgxaLAoAGMb1/sttRqEf8r9yPfBiyyT21b2d5XzkUTzO67fP9e67a59Xnc5py30/DthywwR3eCqcQgxXS2rCs+zou6fOMT1AS8rt3/+vgWOZm/3WG60oKxAtqg4j/57BVZMGudTZe9BBaDJSNXhwjdHkb1LVLR/dG/T4vH+6L88G9lyplUwHlGtJ2UZG7EVtnjPfbodhW2lOD8RBJxX4fKqf8Ue9WolO5TtVSZdECUqXGeLk+oSe1cGLkmuM8ry2tsBU8Y6t2uBQcuuYkJ574Mzye7aR3Cb/tc+N10m7uPw5tlq4S6vcpSzeF/7x0eK5WwBISKSasaYEB9bCqoP51X4e8BYozIr/3gXc3npqUzB6cZy9LNXEAN3a5RnK0lpSilnZ6uMIwo2FVI4AJeIbmw1ozvGRy2CO4qr1IXuq1DZPL58MqLEFbRch3ibXrcVU81jQpTtxlW+vEIea1qnWlNMzf/e5NWvs4XDpQWC269AzMfu6+GtH4t9Topyt9IoRiuBrADNrQjFC0bwsyvwz38bz5PdAu6xCvr1xvo4DsRJXbnrLhZJdhPFe3Z7uah1RlmWabsijPMwytpbCe/BdZFlAsR9qd+DtKkeY0Ky94jH7YN1K8lWLHStq4hyNkJmqrPliIjoRiV/O0b6Om2rflR+17uvXbt2if+/6sNkd0xBf4e44ixm3VVH6iQ4+ifmFLtOVOjyt3L05LkPuZ17uXyNyY7UIuvgmLLVc51xPO71eDbBIa6gi9mvmCbZ9fIcx+JnTcvN22yd7F7uva606WCCQ1yvG9uI15Hn6i4Hr9cT05StXtsXN3kdi3sbr3P2fj9K3M44jlJf22Pba78H6j11lavXvHdZyslVnqZzkMvkc53bmctSnltiCevKUM6ef3tiMh0zJ06cOFXmZNSv16cy80Et+X/iA5E/YEdlJL89MhPBXmNxiIio6uEP2BERERGZMIQQERGRJRhC6DrJwZXsiiEiouvHEEJERESWYAghIiIiSzCEEBERkSUYQoiIiMgSDCFERERkCYYQIiIiskQVDCG1OHHixIkTJ04VOlVNVe627URERFTxquJt26tUCCEiIqKqpTLzAceEEBERkSUYQoiIiMgCwP8HL7T2U9jWIPAAAAAASUVORK5CYII=;" vertex="1" parent="4J6jqHoMn3-eWlfdIwtx-9">
          <mxGeometry width="326.35" height="100" as="geometry" />
        </mxCell>
        <mxCell id="4J6jqHoMn3-eWlfdIwtx-6" value="" style="shape=image;verticalLabelPosition=bottom;labelBackgroundColor=default;verticalAlign=top;aspect=fixed;imageAspect=0;image=data:image/png,iVBORw0KGgoAAAANSUhEUgAAAQ0AAAA3CAYAAAAWhB93AAAAAXNSR0IArs4c6QAAAARnQU1BAACxjwv8YQUAAAAJcEhZcwAADsMAAA7DAcdvqGQAAAkTSURBVHhe7d1rTBzXFQfwvyvVTsKCMTY1bm1sWkIDlVsSS6R+IFU8LCVSt1ZUGikOzvObu1hKSpWq/UgUq24+mG0+BjehjpS6qu0lsiUjUCQcSJBcSN0uhSBjHjGLH3jNI21dydt7Zu4+2WX3AkvB/v+iUWfuzM7c3fSePefOLFkTUEBElKKv6f8lIkpJVKbR39+v14iI4mN5QkRGWJ4QkREGDSIywqBBREYYNIjICIMGERlh0CAiIwwaRGSEQYOIjDBoEJERBg0iMmIUNPwX38aru0tQYi2v4u2Lfr2HiB4UKf/25N+fvomDHxTjd799BgUPScMQ/vLLX6DvuZP49Q+lgej+cOPGdfgnJzEzO4P/3r2Lpf551po1a/D1tWvhyHAgOycHubnf0HtWhxSDhg8f/KwB2U2/x9MO3SRmzuHnL/vxmz89hzzdRLRaSbAYGx1BRkYGcnI2ITMrE2vXrrMG+VKSIXf37n8wPTWNycmbmJ2dxdZt+asmeKRYngypf/bgiciAIRxPqFbZR7S6XR26gonxcXyn8FEUfbcYm3JzsW7dQ0seMIScU84t15BryTXl2tKH1WBZJ0J7G6tRXR2xNPbqPauP78wRVNd5VA4W5IOnzn5fR86EW1NlnS/is4l3Duvzi7qmNuHBkYjXJno9xSeDVb75v7fz+8jKWq9bl49cU64tfVgVgUPKk+Q6Aw01JwPjeitsPHCypkHtTaYn0FhVFag63qO3bT3HG9We/4+e41WButNz39FCjZ+um/P+UiV9iX7teODs6Zhz+c4G6lyNgUZXXeCsT7cFyb6qyM/S/ryX8v3dr65fnwhc/rw3cO/ePd0SCMzOzgS+HBsN9Hn/Huj+tNNaZF3aZF+6SB+kL9KnlSxJpuHDudcqUbn/dbzb0YCD+2U9cjmIho538bqsv3Zu7jegRb6B6zF4uBmtdaW6zVZa50J0y+rlG/GiJH8hMzs+jAwCzr2Rn0QenAeiPxlfVxtQUYOaCsD9YbIMrRSuo054R5htJCNzGPk7doTKkOnpaYxcvYrRkWHc8fuhBrK1yLq0yT45Jh2kD9IX6VNKbnbh1B+a8P6FAd0Q5vvsVNz2pZC0PPGPZeOVpk5cGfei7ULbnMU7fgWdTa8geyzB7deJbrT1OfHSgfkGVC/c1UfgOeO20+tg2XJJb1uL2j9hN4vYdN59Se+wgpTaPqNT9jnpvL2/vgXwvlMbcd5weWEvbtUrTfqhzuPR5ZV1Ld3mS3g+eU8R54tXVljykF8IeD6ZLxD40N0OVO7OQ97uSpS0dIT7loBvVEUimpdMfMqkZ7Ak+eqrWXypBuydO4kfJZB9cowcmw7SF+mT9C0ljkw8fO1zdNzU28sg/XMaY8PwFm9P4e6KF+6RcrS2ttoZiQzKN4Bjsi3L0UK43wwOPDWIRirRrPc1Hy6B573oQelRg+xXsr/RGXNt9S3e2IpjPwZKJPtpPQ7nZtWsgttwhWzLOZvhKvbgROS8QJ8bw3vt67l26TZLgvNd6gCO2se3th6DU73+VCiwRSutU9cbrA8HpFgSeFGJMjnv5jJUqr51JDiXrRen3vHGZC8US26ryl2SIP/t2/MGjCA5Ro5NF+mT9C0lMw7kFQNDH3cl+FJaess6ETq/ErieDf+fvPcTjxqENeHyZVcNXGrodFvf4mqg1oWDgfXt2zcc9aE5X4gNFklsdsIVyobyUFZREp3eF7tQExUsktjliggupShXQWVwNNG/VjvwSHDBGzFZjtL7oVuVJmX6/dh9m5uZeFAfymzqrYAVHdwoljyHIbdVg6am7ui15EyONSV9kr6lKvvJChSgDx2f3dIt8dxCx59VKSPljLWcWnB2kv6gsXX7nAGdnF3n2+l+cCDUwt3nxfCYPiSydHnerfKUxYu8u1OrvqkXJ7rckfIluVK4rMxpEPWhcqYXHaHSJ6JvLSeiyjUVJsNZ2ZxsiOKRB7fkOYyg6akpvZacybGmpE/St9RtRPmPVLrR154gEEjAOIuhrH049OLL9rLHgaGPzuOyPsJE+oNGSul0LLvOd4bS+5jBIAHjve2h8qT1jy6VpyyOBIwT+cHyxC55Fk4CRi2GXwj3W8qXVEVlTqrM8agsJ/ReQ+fzoq3LLBTTfWzTbpRLmfLXOJOfNwfgm9mCx/cX6QalqAwFjnGMLWCudBnKE5V6q1LBo9Lu2GcHehuj0/BIpXvlNfH3W5N8hfk6XVfbXW2LzDTszKZwW+iM6G5fzBl9GO4rwfatelNnC/GpANMYPR9jvR89D2SVaaHSJEw+H297d9TryIw8yi3PRgRlZmXpteRMjjUlfZK+mcp78gfIvXYR52MDwaQf/3JkI1dv2jYiW72FmdvzlTTxpRA0OtFwKPZWa8xyqEEdNQ9V30u9XhhVbsg3e8ScRSz1GitNjzg+eAci78BLcLbYE4eyvDVSaJxplD7rAkJ3O8KBzT7nWxguXEymUYqaw4D7+eD5OoCEmYbKquBGrX4vstS2V6JZJnAnPDjRUmLdNZljV/m8k6uUnPz2Qx7lDjJ5sCudD4FJn6Rv5orw1J4tuNF5Hl/oFktONh6e8eOG3ozk2LBRr6WO/7EkemDJbc3bk7esR7mF3EaV5zCS3UFZvz7bep7ikUcydMvSGujvw4acjcl/iyLPaXzkx2MvPoWduklcvtCEnmtq5Zv7cMgqSSLmNIIlysB5vK++6R+PeW0qVtDdE6LlJYNSfiwWvBMiQeBb2/KtoJCI7JNj0hUwpC/Sp8X8eG3n/n1zSpHyn/4EBVMXw3dPFhgwBDMNeqBJtiE/FpPffgSfCpWMQ57DkAEcvEsicxhSkmRv2JC2gCFD8R+X/4bNW7as6F+8MmjQAy/4g7VHix4LBY7lJsPwi4F/WrdbdxR8W7euTAwaRIoEjpnpaWuuIp2TnPFIRiNzKY7MzBUfMASDBpHGP8KTGgYNohgSPPjn/hJj0CAiI7zlSkRGGDSIyAiDBhEZYdAgIiMMGkRkhEGDiIwwaBCREQYNIjLCoEFERhg0iMgIgwYRGWHQICIjDBpEZIRBg4iMMGgQkZGov6fR39+v14iI4uMf4SEiIyxPiMgIgwYRGQD+BzIw+58Lq63LAAAAAElFTkSuQmCC;" vertex="1" parent="4J6jqHoMn3-eWlfdIwtx-9">
          <mxGeometry x="360" y="50" width="171.18" height="35" as="geometry" />
        </mxCell>
        <mxCell id="4J6jqHoMn3-eWlfdIwtx-8" value="" style="shape=image;verticalLabelPosition=bottom;labelBackgroundColor=default;verticalAlign=top;aspect=fixed;imageAspect=0;image=data:image/png,iVBORw0KGgoAAAANSUhEUgAAAKkAAAAaCAYAAADMi3z0AAAAAXNSR0IArs4c6QAAAARnQU1BAACxjwv8YQUAAAAJcEhZcwAADsMAAA7DAcdvqGQAAAjOSURBVHhe7ZoPTJPpHce/m0sJSQmOLtxBTGy2rOfl6i65zsuKl8HIWYkCCYjZUb1AUCoG6rmrboLbgN2kblJPATNFTto7U2pkmEg1WC4cLOfVxNVE7UXpJewlR+gduTZ3gRyhCdl+z/s+lSJFGsdcl72fpLzv+/ze9/k9f37P74/xO/8kICOTxHyXX2VkkhbZSGWSHtlIZZIe2Uhlkh7ZSGWSHtlIZZKex4w0BLclB69tjv7yULy/Ca47IS5fPfxnWP/t8PPnpGOqH4dpDQ5fW/25/88x64fjoBkdt2Z4w1L+vf3kdmfpR5i3xBLfk24oR+Opdpw+1YAdKZ+gw2yG4zMuS0KCg014y2hPXoN/pkxi8B0zdnev4mpMT8Lvv4/xr+d4w7MlvpGuVUO3SUc/Ayr+3IxSCHDfCnBh8hEKeOAbn+ZP/++EMTrgg/Atf1wNMg048eEwThSoeMOzZeWcdI0CCn7LiLp195AVVa9Hw2EEwmA7jhoNUpqwzYij3T6E58VPCJJfs6FmG/vWgJrWYQiPZESc0Bq+ZqF3LXBP8QYifNseo8OEvjEpTNQ4mbQHNaz9DPcgIR9c75hQTGOU0hYb3GMRSRYPet/x6yLkUx/5JRa47i4NbeE7C/oLjA1wPXxyf8vr96NDHKuPogBfl9eLcHjRmjF9PWjeL42JyWta+yHMcmF0zS554DrIxkShVmwzwcXkTpM4zo578UJxVD9vifZ11Q/vGRMK6F5cg+j8luzPCvvJ5EMx9sDm5gxQK2c+BF+3RVobUebD8onESkY6P4PAFSf6kI3CTRreyOiB64EBbTc+wYntKgSv1aOqyYu0nVZcvNKLs9UbMd5lxgEKOWxgM0MtqGrpB0ptJLej7kdeuC5JPSVKeMCCsoN2hPIP4cKlflw8mgPFrAqGZg9OlLE3duDEdQ8GqrRiDsVSlM7Jn8Lc0YurTiuK0I/jpnoMxhj9I+YDcND75ydyUPeXXvSeKsN03zl4uZgRudeOA2Y7IqUduHq9F42bBHTUtWDkG/5CLInq/8gGxxd5ONLpxOkKDXy0ZtYByRAkfecQ1Jlxls23uQgYIMfQ6FmUt3nP34DykAcf3zRDq9qKxus2inxEmQ0DtB6ml8TXEsJ39hz8rzbB6WxCYaoXHb91Il78XHk/p/HZgzQUWntoDL1kI2mi8XfSgWEEnGa81RVETm0nLjvbUfptLzpvSbJ4xDfSW1YUsxPwcwOq3r0P/aFWlG/gMhEDqit0UK5h936436XtLLPg7RId1JnZ0JbU4/d7syF034AvEoJ3wIPIS2Y07tVzuQW1JWJHCRJAf5cXke1WtO01QLNOBfXmShTSBiiUSqSJrl6BtHQllKlk0CPdcI1rUXfUhC0bspGxXo/q4w3InfWi52+C2OMiHg7DMa5A6a8sKP0Jf/+IGQvHMoSRiz0Q8hvQWKZBRno29NXU96wHbu/Swiph/S9Wou5NWrN1lF69aUYdrbF3hLxpVJ+4ZtH5mtD6mzxEbjoxPM6/J7Iq9qFwHX+gqKdMT5MinyKN7pVQiHuUGKqdZlRvYuM1oPwNHSX79xFYcqgT2U8VttRWQr9eRWOgtdpVDj25q/HP2Vr5MeIQoBDtRYusTDX0exvEuS/Hkwun93ox8JEHx0rUi0I+G4RKyW9DkwhQCNJpFr/zg8z19HcSoa+DEO7Q7csvIEuUMMigyJgSJiTAHwT0L2seG0d8Jid89Hcjba70LEKLxfQHvowTxj8fpSXUQbM+pvdUBc0yShCjN+ky1CSGQjGEbW3AIBMtCnMSCet/PhvRZQTIuNbSZZ4VJ/HWDFA+J/aAyRjvrc5YvTxRnbnQVwoZfHwS28/w7b+igwq4qj1GFJRYF6JSXHvhc1+GJxdO5AWUK1mFKhsaGqAvICzkHMRXU3TcU9VQqzKQ9SI1jP0jJkzNIPgFv2WsSREvodmF4mduPqa3ZXQsR/Y68gIgLzAhPYt8M0nLS4aujt12iQw6zdQ7hNgxhUNULkbJwgub6VLQhMsspYj5NW5ZaiQJ66f5xuZpIeYh05gnzIL6Fbq/Oyp+E2XmS7EHqJ+XnhMmhW1iBNNRZeJBeFpW3s/IbRulZj2I/MyC1pOduHqpnkbNWasCc18+IWZm0bkvw8qF04pokVuhRqTXhpNXaKOn6KRQUv2HrkmoK7ZCuyYbunzKE2/ZYP2A5BMCfB+0w/GAf85QqaGlvQv09cD9MITgPTtOtjFvFCWqo56KCw9tPhnQTTvcn3KxuAnU7z3pl6EvwpZUyguPdWLw4STC41QUHaP8MdWAwtfieB5tDkpTI3Adp+KG3g8+7MfJ024uZKhoDnooBuxwDAmUcRHTAoYdNyDEOcQJ6x84h5PXAghPCfB2t8IRpJRjew55VxX0BQYoPm1HcxefLxWNzX8ahmJLEfIy+ffLkMK82tjf4Se9/jHykD/Mo4Z+ON6nQo10DbbZpOLqqVh5P2fIW4rnQUFF99xXGLncs+BJ12yEvkyBiLNFnHtwIgB3WytiV/txVsFIAY2xExcadBDet2B3SRlqukbxSoMdZ41SVpdVbMXpvTqMOszYbaLNyihH7S9EEUeD8j+aoZ+9geN7dmBfXxpKqx+dPRGm4+yhHMxdpaT9l1TpnqGUPl2SabdTov9jH87vr0Qzq8rT89BICXnF94dh21OGYiMVLN+rxGkqCHL5N4tQ6FDXWY9SJdNvxL4LIeTWVYD51ygZBVY+xzrs3GZAAc3DSwcwm8sXkaj+YiNyhVYYS4w43AcUNjnx9ibJ6pX5TVTAVUI11CrOdzcVTIpd7ej9XV5MihAPLQobiqC524maPU3wUWhV5pooZdNQjWDGzsoWjOor8QZ/+2lYaT8zcvehbvMc3A009312TL9atOBJKU7oauw4UqKEp6USu6g4DOUeQAVzr8sg/6fn/wrsn4BMcNHB+7iWvJLME1kVTyoj859ENlKZpEcO9zJJj+xJZZIe2Uhlkh7ZSGWSHtlIZZIe2UhlkhzgX9R72FUntzSfAAAAAElFTkSuQmCC;" vertex="1" parent="4J6jqHoMn3-eWlfdIwtx-9">
          <mxGeometry x="361.09" y="24" width="169" height="26" as="geometry" />
        </mxCell>
        <mxCell id="4J6jqHoMn3-eWlfdIwtx-12" value="" style="group" vertex="1" connectable="0" parent="4J6jqHoMn3-eWlfdIwtx-13">
          <mxGeometry width="520" height="100" as="geometry" />
        </mxCell>
        <mxCell id="4J6jqHoMn3-eWlfdIwtx-3" value="" style="shape=image;verticalLabelPosition=bottom;labelBackgroundColor=default;verticalAlign=top;aspect=fixed;imageAspect=0;image=data:image/png,iVBORw0KGgoAAAANSUhEUgAAAiIAAAClCAYAAABhnpZjAAAAAXNSR0IArs4c6QAAAARnQU1BAACxjwv8YQUAAAAJcEhZcwAADsMAAA7DAcdvqGQAACcNSURBVHhe7d0LXFTV3j7wBy+glrcDZqHWmfJkZZIapkJZTiZmb95S8/X2nsC31C52UfMclfMe0PeoZZGdstNf6T0G5iEz0RNq2WgWiIFZ2EXNHBMFL+ANQ0GR/1prr5nZMw4Kig6Dz9fP/jB775k9e/aA69m/tWZPwKlTp8rPnj0Lb1N5ebnbJDl+EhEREXkKanoNZm1egte//Ugv8e5/uo7G02H9EVBcXKyCSFlZmZoct88XRiQGEiIiInIICAhAeaP6eHvbvy8YQhxkGAk4ceJEuSOEnDlzxhlIKgojDgwiRERE5BAYGIjjjcoQnvK0XlI5AcePHy+XAURO/ZfH4s89RuHBW+5Gw3pB+i5ERETkD06eKcHnv2zG/254H1vyd+ilV8YrfZ7B+oKtWLErQy/x7qYmLfHr8QN6TgSRo0ePqiAiNWp6LbZ//xNeeeUV2Gw2nDp1Si0nIiKimq1BgwawWq2YNGkSOnbsqJdeOQWnjiN0wVA9591dIbfgs4Gz8eZ3yxH/dZJaFnD48OHy06dPo0mTJti2bRt694nC6ZJStZKIiIj8iwwkf37vVYTe2BqHTx7XSy+/4Xc9hObvDNBzhvtbheGLfTnqtiOE7Ck6iF4fT8bRkhNqeUBBQYEKIi1btsTIkSORlpaGsvbBOHNfK5Q3rKfuVJPkPP1PfYuIiIgcjh4+gnmzX8O/P1qOTkMfxIsvvoj8E4V67eXnGUSaBV2Ln//rn0j9JUNVQLyFEKmOHHQqB6TK0a6yO0aqqSGEiIiIvGv2u+Z47uUX1e2cnBzVrl9JBR7VFxk2Bn/yV4y+/SFkDXvLawiRVBBxfALGMSaEIYSIiMj/yDAilZZe+SEW+ccL0e/mCD1nkN0yYz6fi5yCXV5DiOQWRIiIiIguxu7DefjT3cP0nMuinz5D+JLxXkOIxCBCREREl6yotBinz5ThL/eM0ksuTF7QrI68wSBCREREl2rr/p344+1RlQojMoSMu/NRoyJCREREVB3SdmzEg606Y+OQeXjU0l19esZB3pbLsoa+hRGWnig59ptRESEiIiKqLrIy8vPBXEzqOBRZw97G4aeWq+nHUYno2SIMTYvrIqD4tLpvtXbN1AkIQFC9QDQJugZNG1yLhvWDUK9OXb3WnfxQUYD6R0RERLWNHDMiA8mnOzbhg5zP1BTSoAkmrf67+lSPI3tcckVEBg0ZPG5uHopON9yKvn/ohhFhD2HUXVEYdPv96Na6PW4NboPmDRuLkFJfhZObml2v7ht5453qZ+sm1/G7bYiIiK5CAfn5+eUlJSW46aab0Ly58fnjUy90Vj8vpG5AHYQ0aoqHbumCAXfcp0JFo/oNcPzUbzhTXobmDRqj7GwZthXswYrt6Vi1YyOuCWyASfeOQPc27dFUBJgjJ4vw+a7NeGvTMvxwaDfOlp/VW/eOV1YlIiKq2D1tO6Ds5qb44IMPkFdUoJfWDP9996NoGPcgvhs2H0FBQWq66CASWLce7rq+LZ7t+hg6tLxFhI1fkbYjE5vztuNYyW+q5BJUtz7at7TgP26NwD2t70Bh8TFVFakbUBfvbfkE20VAkY+N6fwf+GpPDl7LWIJfj7q+kc8bBhEiIqKK+VsQuaiumcZBjdCtTXv8qccoNGvYGP/ITkXc+v9TVY+fC3Ox7/gh9eJ/PXYA6+1bMOvLZMzL/BB169RBy2t/h1U/Z+LTnV+L0LIDH/34BRbnfIY7r7PgnlZ36GcgIiKiq0GVg4gcE2JpfoOqhPxOhpCsFUj+7jP8dOhXlJwpVcGk7e9a4fYWN6mfcv5YyQksE4FjweZ/4/DJItWdc/psGYpPn1JdM2t3ZeOkeKz15s6qu4cDWImIiK4OVQ4i1wY2Ul0tnUPbYfaXyVi/e4saGSs/MWNpdj2e7z4EyUP+gtWj5uKjYTPwWp9nMLS9FQ3qBamxIDKQDLyjB264Nlg95vTZM6qKUlTymxrwKqstASKM1DjZb+LWVzfrGTrXZswPeRIr8/RsZeUtxzMX8zgiIqoVqtzi39HiJtz/+4746If1yNq3DadOl6hPwrS/zoK3Hn0Jf+zUF+2Cb0Rwoybq0zFWS2f8+f5RSBz4JxVU5IBV+cFdOb7k2sCGaizJqTOl2H/iMOrWqYsW1zRTXTiXpoJGUTZ6MctxSM9Wt0PLnsStIW9ii543HMLKmDZiuWt6ZplrD4zHVNwQb3lVPMbrPp+7Xe/3q+FCB+DvBe/i0VA9XynGa5+frWdN1PG82MCoQpHn+0dEdBU5+AXeCe+HJ9WUgl168eVUpRZffqXww7d2U7dX/bwJJ0pPoqz8LH7XsAmevmcQWl7THGflIFU5IFWEivp16+EaETZaNGqGLq1uw2PtH1CfqjlwolB9ZDeobqDalnyM3JYk1/vn1UU2Y+mTHfDClDnIPKeBfBhzc3Kxo0BOy9H+yaluwaN3f+ClxV4aT9EwLpylb3tl3q6YFg5AC72mdmuBbo88jNfXex6zQ8j8BJg7/G49T0RElbcNaX0z0DltBd7NXoFXZ/6CWVO+gPuX+1e/SgcR2Y0ir/XR8fo/4HhJMb4/uAuny86gfp16IlS0wCPtIvDVr1tx5uwZ/QgXGWDktUbuvSlMDVY9XVamxprI5Q51dHeMDCVXhOPsV3a5OCoKbmfSsqriqDZU4iw5OwOvT4nAuAcme2kgzW5E6/6rsNdcAXmkL16YlXHOc2xZ/Czav/smeuv5qlCVFC/7b1QMlutqilyuq0fLXMdBVRpMx8VZeTinoiQrE96rOUalpxLP71mFUPOOx7lXj8xadOuL3p7HLHsJXkJfdJPVFbftuLYvj8szyzabqkl6nXy9Yc/iU8zB46bndTuO/lhxIiKqrK05WD52IO65zphtEjUQA9ZmYNtBOSdCirNS8jd8rZZVj0oHEVnhCG0crCoWshvl0G9HVTXk2qCG6Nr6DpSWncZPBbtVN0tFZBi5sel1aN20BfKLCtRjJBlHZFeO/Hm85LcLXkuk+ohGZ32Erih8g7k/DdANkGxgBwCrHdWGCGT2mWM8pAJb1s/BCw+IM/HwCBEq/lHxmIe8dKzBmxgcrueVSAx+dysWmhtd0ZAunDUZ3YwCVJXIxv7xn95EuqNSshp43NyIzkoD4uW6Z9FJLViFl3bp47BaBKk+otF1HBc1bwoKlXIImbv6Op//X1PEcTaHvHOe30GEIhEG2juP+zeI+qSz1y4YhEYiqr979Um+B70fiUQLtZ00RDmqRR6v/9Mn/6Gf37Rv4c9iR44MfZPxL7H874NkbWkzMrHcuS9z8Sz+WkEwIiLyd8fzfkHnNi31nNQSIb02ouDAEXw9ZTLwnlEpeTf7T86wUh0qXxERMaGxCBLl4l9B8TG9FOpaITc0DkHusQPYfWQ/TpQYXSzeNKhXH2HXt1W3s/K2qe4Y4yO9wQhp1AxFYl6GHBlwrgzR6Ex0lPFb4NFxk/HpJ+k4pM6szWHhbowTDXKFHKFB3f9udJuyCmsyzQ2WaOjD9Fm1bGjHnduFIs/w8eQSZ4N/KFM01u8O82ioPZm2KyfV2MsuImBuvOk5woeJRjQNmY5wNOUpjzEZD7u6M2SQOmd+q3sF54LEsZzoev5OD3gcu3Oe33Bo2T/w+pTlGOc87sZ74r3C5LlOhIZZDyOqWwu9HdNzyNeQmou9erb3uzOd69S+/ZRbQaVDvO+m3w/ZHUREVFsV5MoxnGbNEaKabOPnnrwjaml1q/wYkQDZfRKggoi5YiF7UuTVU+vVqaeuHSIvTHaitNjr99fUr1Nfdc+s3JaO/KJCnBGPCxTLOrS8GY0DG2GzCCelZ057fewVEdrG1Q1yextnQ3ohMjR8OiXCGRo6DX8TkIFGz3uO5ei23kuXQ+gAxDjHlxjjTWLUWfn5eIwRcTaaHdDaraFvgda3e3QHXW7mLq8LVJPMet98o76lyfekoqBgrj6prjFT+Jg1wPX8IQPwekVhyvyee2HuYop8cpVeSkRU+4S06a5vORxBwU7j1s1j/onO6/5Ldc28s6Z6A0mlg4gMBydPl4o8EiBCQ0Pn+I5TZaXIPXZQfRz3t9OnsPSH9epCZbJq8lvpKTWORAaVEhEw5DgQGUDe/vpjHDl5XF0zRHbtPHJrd5SVl2HNz1+roHPpvIzDkPJy8en5AoZ5vUfjd2jPVn3LkxwgKRooc8MnxxqkPoul3roUBHkW/umuPXrORQaYH+YvxxZxRv/DBash5+PZ6B7C3p8e9ggnl5EMIfPbmLqGzlNN8nDOcTnve+aqPjm7xrTe737jCmhqquonc4wQErnrKec20t9lRYSIardvcs1XNz+AgrXdEaJ6a5rjnlmyW8YIJGkVNYkXodJBpOzsWRz87bAKJLIrRl7iXYaSopJifJO/Q31SptfN4fi5cC/+uOx/8bcvk7DO/o26umpB8XE1fiTxm39j/Mq54vav6gJm8mO/8kvx+t12L2y7vlHfSVM99KcqRKPuChObMV+cmZsbKzlGxDUuw7RelfLNQUJWKCo4G9bdOM5G19RoVTRoVY1l8Dzzl+S4BzyLx5+E6mK4OEbj/NJ002s3D+K8FKFt0D7V1cVzaNlUvJRq3DZToc0UHuTrrQxjAOoA05iQQ1g53/M9c6dC3SdTTV1jxnbg8cmki7F31yrT+6QDJxFRLaUGp77zsXMg6vE1H7sNXjVUfzdNpYOI/DTL0VMnRLDYj6YNrlFXTa1ft64IJmfVJd1Tt32FxztY1TVG5NiPJVvX4sXVb+KxD6bi4fdfwsil8ZiXuVQFExlmmgQ1UtcYmRg5DF/v/RGrf85UV1qtLi0GvYt/3f4sIh1VipAB+EGcJbvGH0iTRcM/1cv6uzEu5038IAdtqnUZ6FbBWb1rgKQ7o1F1DFp1H8vxOJbrwZCejHEPFY2hqKxOE3PdX7usTlTLR3vvxuB34Xwtf8VTmNtfrzJpMWimGvjreL2Z4jhXirymiNtx74y943I93jMPKjSucusaU9tZ3cHL+JkL0N1jjk/NdJooP2rdWW9jKvbezooIEdVmt6Hve7dgQV/j0zET10Xg1TG3ieVysKrjEzP9MEucxI+NMr6brjpU+Uvv5Ff8R3d+RASPL/GvrTZ1VVU50FR+cd2wsAex5+gB/PPbVfjy1xzVPXPydIlzTIn8qK/89t3QxiF4wNIJD/+hG06dKcHrGSnIOfCL81oi51NtX3onP94ZlouYcz65QURE5L9q/ZfeZeR+r7pQRt3VBwNv76Eu9R7V9h70btsFeceNF/xC98cx5b4RuP+mjrixaUsVPFo1aaHOLAfcdh9iH/ij2hkZVP62Icn5CRoiIiK6ulS5IiIHnMpvyn2m62PqS+qaNbhWddmk79mKOV8tVtcGeeTWCDzaLkIFjzri35FTRWpMifweGRk4tuT9jI9/2oDPd2WjsPh4lT6uy4oIERFRxfytIlLlICLJK6yGXNNUfS+MvC27XwpPHsOBE0fUp16uqd9ArGuuLu0uv29Gfkuv/Lbd/ScK1SdsDp88LgLIMRSLx8mP8FZFtQURIiKiWqjWd81IJ8+UqECxJW8HMvZ8jy35O/Dr0QPqqqryY7ryq/63F+xB5t4f8PFPX2DRd2uwOOdTrPo5U93XfiRfXSa+qiGEiIiIapeLCiIO8oofsgJS0ZU/ZNCQVY9jp06o4CFDyhX7LhkiIiKq8S4piBARERFdCgYRIiIi8hkGESIiIvIZBhEiIiLyGQYRIiIi8hm3INKgQQP1M+DkGfWTiIiI/MfRw8aX0QUGBqqf/sAZROQX0VmtVnW73pf7GEaIiIj8iAwh82a/pm6HhYWpdt0fOK+sGhwcjJ07d6J3nyicLinVq4mIiMifyN6NP7/3KkJvbK2uZF6TnPcS7wEBAWgR2hLbv/8Jr7zyCmw2G06dqr6v5SciIqLLRwYQ2bMxadIkdOzYUS+teSoMInL64xevI+O/5+u7EhEREVWv837XjPweGCIiIqIrhR/fJSIiIp9hECEiIiKfYRAhIiIin2EQISIiIp9hECEiIiKfYRAhIiIin2EQISIiIp9hECEiIiKfYRAhIiIin2EQISIiIp9hECEiIiKfYRAhIiIin2EQISIiIp9hECEiIiKfYRAhIiIinwnIz88vLykpgZzuWjIOJ2M/16suTdamTH2LiIiI/FmXrt30rUvXMO5BfDdsPoKCgtR0WYPILPtKPQf0bnsPngrvr+eIiIjIH8j2/HIGEXbNEBERkc8wiBAREZHPMIgQERGRzzCIEBERkc8wiBAREZHPMIgQERGRzzCIEBERkc8wiBAREfmlEmxZcgAzvy/R8/6JQYSIiMjvlML+6VH0/eQsps0+4tdhhEGEiIjI7wTCcm8DPBMib5f7dRhhECEiusxy5oUjfF6OnjM5mIoJ4ROQelDPV1oOEp5LRaGeu9IKV0xAwrd65mJ8m4AJK6px79VxTBBH5SrTqCmmzmyEGX4eRmpuEFG/WOKP1zHpPzr1Bz34beSUGneT5B+F8Ucu/jjNj9GT/IVX93Es6xGF6HnpKCwzHm/IQ8oTYl2/RGzXSyS3x4X3xJBJCVi9o0iv1XJTEC3W93vP/EghdzXmjIlChH58zwVX3Z8JESmRiNxpO6ehLMy0IV3fpktwXX+8kf08wvTsVaUWhJEaXhGJxPS0bGRni2lefwTrpYEHkxCf7NHoK2F4Xt43ew2mRwAjFxiPfaOf8cjI2DXGtpLHo/HSCXh9nSlQ5H6F1WVWWJstR/oOvUxzPC5jXTKmd8jD7OHReHurKwnlbVqNkl5WNP443RRi7Eh6YRq2dXsFKzOM/Vg35qr8MyEiWBATDSx0qwLk4P21VkwfrWelbxNMJz6uM3zzCVHCt/KEKxpJGfGI0tWUnHni5wrjsbJSoU7Y9P2dlQdVhUg1TtbOqc4UIvU5x2P088qTwXmpruX6ZFDuS1RcOpLG6O14bNft5M30PG6vYYNeKHi/v5f9MTMdJ+P1iWPieKx5f9y2aaLuk3P+12x6vY7nciwzmE98HftoWua877nLqv7+XICfhxG/7JoZOjEWoe/NRspuvaCq2twLa0egqNgVJuwZqSjoGYOYnsDyDd5CjghAjUMRNnoG5jy+D4lLvoIRY+z4akUBHoyOwYMQIeZHtVAownHxH0RIaCsEB+pFRHSVssMeaoUl7n3dYMkGbiEQ3V9EFE02gmOARHUylY01sXZEywZJLI8TgWWNXv58R3nClYiREdPFsjfQ/zr54HTE77bq9eKU7DnjvvKkzLrW9ZzpcXZY5fLn3E+KcubFAdP0Y9IsWOhoCBfZnMsT28bjfRFygvu9IfYt0jjR09sxb1euN55bPAYLjW4n+RriLM7XZkWSepzk7f6FK+Jg66VPHM+pdIiG3XScHCeaZs79kSelO/U+eEiPE8dfvzbnsZYcr1me/IpwEGU69vIYxKngIIOSSJb6ZNfYR7nMpp9XTNF2dd+ceab76RPqqr4/leLHYaSGBxHxx9VXJ0dzQryxD16e2BgJr6Uiz617pXJKd38OW4YFd93m+AXejnXJRRgQ2Q7tIgcAK9KxvcLtBuLmdl2ArbuRJ2d3rEPS0QGIvLUdIgeKEJPhCDFhGDDFiqzYwYielYIcL38IRHQ1CcMo0eDZ1NiKQny11qJOiBxkNw1iRzkb3eB+MRi5047C68SJE+IRdd6z5EhMH2ZqvGSoUWfcUYjPECFI//8Tadq+Sw5si0z/1/aNR7p8XrlqdIwOOmLve4w0bnjhvl1XBSBabNcu/qP0fG3u2zr3/sHdrEBcVAXjUMJgHZ2EaLfqhDvX/gTj3l7OqOcmMjbW+drk80V6ec05G5IwUoRFR0sRNmw6sHufOL5fwYbpGGV6/9SyDLFf+rWEj0lCurivfK1JYzzGAVXp/bkEZWf1jZrNf7pmPBJi6CMv42Xxxzl7RR4qm/nSxS+2/AWJeCoH1qWJiL5Vr/gxHcuPWhF+i7h9SyQGYAFWbTVWVajZtSKSiAizYTkKeoWjnbjdrqsIMYtWIUeHmNC+c7AubQ6sRakYO3gE3v7WNLCFiK46ssGzJ4oG9Nv3xRl/ZRudYPSfJ/4P7GFT/39deJCoaNj72hGjzrjFWby566dCI50VBjWZusKrRlYFFsKi/9+WlZPzq+D+asxHNqwbZGN9bteMqihME1lFHI9qHfR6qVSVSh9DOcl2q+Pz4nYsMEO8FhWeLub9qYTiY5g5tRjTCuRMAGa83BxT72qoVtV0ftk1o9QNRf8pIp2+PhtZZd4Tryc11mPTGrzRazsSFmXprhURJjKWI69YJNmu4helqwgMeaVI+SwL3mNDEbIy0hEYfhssZduRLoJQ6aJoIwGPfltsJwWrs02PvK4LRs5MRvJYIHGRrcIET0RXAdHAxrS1IS7RDms396beqAK4d90ktbW4AoFs0BaMhH3PBf4XOSjOsCMsaKVmZLVD3TiPVrBEJHmMX7lY+2DPsMCiKgqy6mMMxQ2+0YL0tV85//+TlQaD9/s7yMCRONpVMXAjw0qarlBcBLf9WRIP9Lr3nPClqhkyOOp5db/fiyOrq1Syq8rpOvE6MjyWOckwuQbTYce+Kr8/leAthNwZpFb5A/8NIlJofzz/dBFmv56iF1RC3WBETpiOITnTMC1N/HqV5WDVogLnwFY1LRqPkJXr8J1HEik9moesdyYgLrs/ZowWSXfrKiw4Ks4kNrkemzw2BMs3fOceYkoLkbdfxJ6GgaqKQkRXr7BhInC0dZX/nUTDGivHKqiSfbgxNkGeUTvL+GIaA8SoMRFhsLZ1DVZ1o8KOXCcfYwMueMYtG8lEWHTFWE4XqjKoyo5jsKobo/vJeA1xsLfVFQ4RouT4CmOfwmGDo2vG+/3NA0Sj4XmsXF054X1tsJq7pKogsq1dVVSM50j0OtbEc79d9xPHbJqIFfIYqHWyahOG50Uwci3zHDgcZVTBqvz+XICfhxApID8/v7ykpARyumvJOJyM/VyvujRZmzIxy75SzwG9296Dp8L767lKkH98sq9SzxrdNG/AskT8EvcwBmQpZXakjBmCOZ0STd03stwXBXu0637yFzsOsc5fttLsBAx+sQDP/KUJ/uevgXhn3fMIq6tWiW1uR+LAESiYkoGYgklqhLjSzAJrvxjEPNEH7RqXIuuVBzAh6B1kmLuNfkxEv9EFeDmjD+zDJyBht6y7NIal5yhMnhKNLl5+14mI6AqSn1DZM8p7+PAnVyiEyPa8S9dueu7SNYx7EN8Nm4+goCA11dwgQkREdDnUiiAiL/F+BBHvn8X+y1wJudxBxL+7ZoiIiKqq4/P+Xw2Rl3jv3Qxpj9Txy+4YMwYRIiIivxSETsNa+nUIkRhEiIiIyGcYRIiIiMhnGESIiIjIZxhEiIiIyGcYRIiIiMhnGESIiIjIZxhEiIiIyGcYRIiIiMhnLusl3omIiMj/+e13zVTnjhMREdGVx++aISIiolqLQYSIiIh8hkGEiIiIfIZBhIiIiHyGQYSIiIh8hkGEiIiIfIZBhIiIiHyGQYSIiIh8hkGEiIiIfIZBhIiIiHyGQYSIiIh8hkGEiIiIfIZBhIiIiHyGQYSIiIh8hkGEiIiIfIZBhIiIiHyGQYSIiIh8hkGEiIiIfIZBhIiIiHyGQYSIiIh8hkGEiIiIfIZBhIiIiHyGQYSIiIh8hkGEiIiIfKYGB5EcJISHI7xfAnJK9SLpYComhE9A6kE9f8kKkfqceJ55OXr+cjBeS8K3erY6fZuA8IqOhzpWl+l5iYiIqkGNr4gEHk1BfPJ2PXcVyV2NaWOmYXW1BS4iIqKap8YHkS69HgbeehupeXrB1aJwG1Z/W4QSPUtERFQb1fwxIh1HYvpoO2a/ZUORXmRW+ksq5jzRE+GyG6dXNOassEP15Di6JdZkIWF4BMJ7jED8ujzkpU1DVA9533FI2mHq8zljh21WNHqKx0QMj4dNBR/dbROXgET5HLL7pqwQWQsmGNvoEYUJi3JQVKa24KYwOxET+ornDe+JcYuy3fbdvM89n5iD1bl6hYPsbhmTJG6kI75vOCasKASKcpA4aYjaP7nN6Fk25Jmet2hLkun5thvHwE0eVsdGG/sdHoGoF5OwvVivIiIi8hE/GKzaBGFjXsaALxOwMNujeT24GpOemI19/RKRsSkb6+b1wb5XRyBhk+t+6duBmP9bg/mDS5H6l8GYXRyDlWtXYPIdIqD88ytXQFifhdJh72BdxgrMCMvC5KkpounWsoEO89Yh+7kwbF80FnOKR2LpumxkfzIDlqVjMf+c/UpF3NjlaDVpqdivNZjepgBZehWO2hD3lA3t4sT2srOR/Mg+TIs1PZfU8XlkLxgpbkRielo23ugXDASFoOdzyVgnHpO95mWELJ2G5T8ad5eBxZYbhhkrM7BuUQwC5z3hdgwMjREW/QpWyv3e9A7670zA2+tFwCEiIvIhPwgiQqNIjIsNQ8oscRZ/Ri8TCrNXIb3ZGIwfaEFgXdHU3jEAQ/uWImXTNn0P0ZT36ILGgY3RpUckUGxF/yhx38BQPNhLzBcVuSoHvYaiz+8DAbHO2scKbM1DgV6FXlZ0aSxv5ODz9+ywLxqHnl3DEd5zHJLySrHvgHutpjDbhvTQAejfM1TsVyBCe/aB2KKxLiMVq4+mI36grEyEo9+sdPfnqkjdIBRsSsDk0SMw5PFpsIk9L3VWRCLRv18YGqtj8DCsEefuk0gyKNn+L8Q9NwIjHh2LRJl8TMeSiIjIF/wjiAiNe47Hy6FvY7Znt0OzayHig5tAzwVOIQhRgeICLtBA95llVDMck6pYmMnHm/erzGOkR+h4JJsen539PML0qorYk8di3IbfY9yCZHy4NhGyXuKdeC7PYohQtG42RrxViodnJiM5bSWmR+gVREREPuQ3QQR1Q9H/mfEoWpri7OYIDrci8scEJHxsV9WBoh+XIyXNgpGRt+l7VMGG1UjPK0Xp0e1IWZyCwH5hsOhVLrehy6OBWP3OQmQdFbNlpcjbkAKbxydbgtt3geXHD/HhhjyUlpbCviIJKY51HSIRlrcAb+t9hny+NC8fHW4WinYoQJF8HqHoqF3kKBGk6orbGTbYjMVaFmzrtqNIPFfehiQkZVvQpb17OCotKkBpMyOIle7+HLYMvYKIiMiH/CeISLfKgauheka4rj9mvDceQcnRiOgajqiJ6bDMeAPjO1RYEqlYWAjsM6MQ0esJLMR4vDfRinOLJ4Ho8nQypofnYHIv2TXzKKatBVo106sdbhmKOVPa4fNp/RDRdyw+bGzFUL0KbYbilXfGAP9vhNrnnmMWIq9ZK73SpM29GNUrDwnDwzEhrRBhg2egT+Y09OwZhdlHLc6uHsNdsBSnYGyvCPSL24Yus97AyFv0Ki24VwzG112IEV17YuzaIHRhRYSIiGqAgPz8/PKSkhLI6a4l43Ay9nO96tJkbcpEl67d9BwRERH5o+puzxvGPYjvhs1HUFCQmvyrIkJERES1CoMIERER+QyDCBEREfkMgwgRERH5DIMIERER+QyDCBEREfkMgwgRERH5DIMIERER+UyNvKDZ999/r28RERFRdbjzzjv1raq53Bc0q7FB5M472+s5IiIiuhTff/9DjQ0i7JohIiIin2EQISIiIp9hECEiIiKfYRDxV5kzERBQx5jiN+qF1WE/Fg8V2xy6WNwiIiK6vGpHENGN8mMfmJvOjZjpaKj15Fi//4PBYn6muIemHz8zU89XSDfS5u36qsHuNhXl5WeRv3iQXlDTGMfK/T0R1LE2HfuLIt/bwVi8V88SEZHfqhVBZONnW5C8MQn42OYRCgYhOfesarDLc8X64QudDeCMOMCmg8fGz4z5ypqxUW9TTinDcb1eXjtcj+Ep1fG6rod14CAs83hPNn42HYMWx6C7nicioqtbLQgiG2HbOgjWblY8hmWwne8seYgFFvHDvnMZ8JAV+EzGEvF4WMW/amDuLhGTs8KydzEeG7oYG1UlxlhnVArkmf1MLNbLZ2Y6qjhGxUBVbkzdLp7zFZLPp59HTeaqjdxHsY2N8a71zv0077/n83hs85xKhxfX3zcIgz40vyfiWMcOwmP36YjjsU3P47XYyz4a+x2JaeK9HtHGsd5RYfGsgrlXXsyvOYAVFSKiGsH/g0imDd8MtIrzb3kGDnz0pbmBNDVWbZbhsdfMZ/ndRfiwYaN4PB7qDkvbQfjGfuHGVZrW3dSgORps2YiL0/wMR6UkNwnfdDc1dh+OxKv4u5fqzHSM2PmS6mKZ1n0uLLnpmIEtsF9KI9l6OD5y7IeYMjqMxEJHIy/FRsL2kF6/MR7TXtNBpaLuHhkM5PFzVJfK09F5eKgrOFSktQiHQ5a53hNxrKcNEaGxtZwRoaGNHRP1PsptorspOIjjNQLpxjrTPnafbtx3hrnaVT5VV1i6Y6pze/J1bMGrjsAkXsOrW5OQ71y/FMPVfhARkS/5eRDZj8WvTUdnixEv5Bm4e/eMuWtmED5q434W3P0JC159zYKYKl6nxa1rZrrRBO63b3HvctCNsCtQxGPif+oYpIKCo/EU+/iEflTcS9XUOLpXBiJi4R6yhiS5XrMMHxfqhtlrxzK3fRMhLs5jm165d8+obhkVGgUZSkQIi3Dup6xymANYPDL0sUVrCwZ9aIfdmDsP9zE8NwxfhmU79aPENjqLcHMDKyFERDWKfweRvTZ89KGpQtFmJJa5dQWYOIPBfti3DoJFNqoyENS6MR6yC0I06nG6miCmjCqMf6lu1//nS5ih3hOPbhnJtI/GdGlViv0fPIMRcFU93Cs7jmrJ34EXjd+XC1Z0iIjosvPrILL/S3HG69GY5S/27J7RVGjRAeQyuN7SCctMg2GRuRAjPoyH9VKvirvVblR49i7G0+IM/8Jk0AIGtZWjYQTZJRFr3LxosiIRO9dVSVDb9AgVFZLVk2X46MW5pm4ZQW0z8iLDgAUWt2qTQY396WDRwXIjFno9XsZgXBlSKtsVR0REl49fBxHbx8sw4yFnZ4jiHgg8xojknv+M21nGvxjdpqoxCc6uhu5bkJzr6H65OEY1QXYnyP23Y+LGeL1Gnv0bA1xl94Mc86GeU41XEQ3ti/HiGITq123HY5X8iG+F25SVo42dTMdyJDpvrHz1ovtDYn8+XObqlpHUNuPdx9tU+qPQxmt0PdYYW9L9iSQVboxlc2FZ7DpengOJb/h4EN5ydJUREZHP8EvviIiIajl+6R0RERGRFwwiRERE5DMMIkREROQzDCJERETkMwwiRERE5DMMIkREROQzDCJERETkMwwiRERE5DMMIkREROQzDCJERETkMzU4iARw4sSJEydOnKplqrlq7HfNEBERUfWpmd81E4T/D+brPehYXg9lAAAAAElFTkSuQmCC;" vertex="1" parent="4J6jqHoMn3-eWlfdIwtx-12">
          <mxGeometry width="330.91" height="100" as="geometry" />
        </mxCell>
        <mxCell id="4J6jqHoMn3-eWlfdIwtx-10" value="" style="shape=image;verticalLabelPosition=bottom;labelBackgroundColor=default;verticalAlign=top;aspect=fixed;imageAspect=0;image=data:image/png,iVBORw0KGgoAAAANSUhEUgAAAO4AAAAfCAYAAADgIPGeAAAAAXNSR0IArs4c6QAAAARnQU1BAACxjwv8YQUAAAAJcEhZcwAADsMAAA7DAcdvqGQAAAfESURBVHhe7ZxfTBRHHMe/kui7JSnXVI9CriKXSk9RkgZ5gRLjgxfSpuk/roSmNk3oQmtKQtMaMbSBhEYLV5KmJhJ6WG1t7WV9aMwFXpCYoCjF5hB7wd5p06MJ9V0T7fx2Z29nj1vYk38ezifZuDvz293fjvud+f1m9tjwkAGJRJJT5PF/JRJJDiGFK5HkIFK4EkkOIoUrkeQgcnJKkvNcvDiCiWvX8NetGdy9excPHjzgNctDXl4eNm/ejOeKiuHbuRN791bxmrVDCleSs5Bgw+d+gbuwEHv2VMDz/Dbk5+drQltOqCOYm5tD7M+buHx5DIl4HHWvvLqmApbCleQkp0LfIxaL4Y0330LJ9u28dHWYvnEDZ07/AI/Hg7cD7/DS1UUKV5JzkGjn/pvDh0qLZXS9f/8+Hj7Uw+QNG/KwceNGbX8loFH4m2AP8p/KXxPxZhTuRG8tWs/zAw0vlMEe+Av44RJIhlsQGK5BqNcPFy9b3yShNgcQb4hAKedFaWjtjW5Emn28RGIHhcdDkQgOH2lPiXY2mcSVK5dxfXIS09M3tLKSku3YUVaG3bv3oMC1Mm8aibfjaDtqamtXPWy2TQa8TSFEWAPRFmoCgvVBTPC6peCq60HEgWjpZW4JJ/nR+sbXzNpZitYRlNNSeGyIdioaxenTp/Dz2Z9SoiVon8qojmxWAvKBfCGfHDEbRvOunSjvmeQFJnOqkrHcDkdZvKuuEX7EkJjlBRLJGkCjLU1EGTktjbThX8/h9wn7IYXqyIZsVwLyhXwi3xxRuReVAycQXqKWHAl3PhT+1aKWhQja1mttOAqHxTrL6DkeRG2zyq6gY7GtpVFdvzaF6tG+ACtrgUoPyc9T2bXINjiunW31Qzufk9E+A2SXOt+0s/olnq/fMzg+gaBRrz2/6Av32YLVV9Ef7V5iG6b5lN6+1J6pOqEt1zu05EOzxwY0w3vz5jQ/sodsyHalIJ/IN0eMFqG6Hej4Iow5XvQoOBLuRG8r1ANs1NVyXHoBAxiqNkLpEJRYq+WF13JYHmZHKkfS8mWBWRWdfR50G7ZdlCe44O+NoPuAEa4LufVUEPFK3VbLF2fHEBf9KFXRL4bX6fbpkEDaYN5/UEGhVpHEWMJ8hlCTF+qAVSBq2wiqtPpu+M+3MhF1Ap/p9t0Hogj+aBWb2mbW031ibZnEzdB8ikEZ5La8fcWOrzWmmL41uPXyJwBap6UlH4M/rl/ne4uTjW22kE/km1OK/e04jKM4qi4k3TmEFRZWU2itbYpllLYVrj7a6b36CL38Rg7GxDI05UdjnZGlMqE1+KGO6qPO2HBUO07lsOWKJkJ7hBC83IcFM71SBa+JAizwQxH8qKj2IpoQ5JVub4F1QEyM/i7FvCe7nl+zZ8/UbD6D66UaeKfiFuGa5/lQRc+X6thYSaWfPVYizV7ogNh9Gpm4hy6JFjoToyrrsD4VJgL19o0Oj5nXE3xxsTZbbL5gvUAfV9A6LXHv3j3M/pup58tMNrbZQj6Rb87JR93nR4D2dpuQmUT7Mjo8Axi/ek3fThahY/8xGFmwrXBTk1NdTJRtQgh6J44oVLQaoRptbSp/UZOIT3lRuIXbLgZ7gXsGazBUr19HDB+dIoaNgb5sJiEW8VUMV+uD7Jntcbm98Lqzkw+dM58kEjHWg29Nu9aWQrPjYB1hpAu8/W1GbcnjT0EdjlDIfCbDhNTsCIZHA+hvKeMFDF8DDleGMMSFuHiorI2YTKhGnkUvERvJUqGwsaVmiqOI39F2OPrLaAuJV7tGN9CWnXhJtP1ucfY7kxjscKGwNN1XDol2oNB8RhbaZnNlJyQTmboCF9we1gfenj8So7TQHFlJvJpf1Ok9OeKlzw7pCyZi06ZNKHg6FZYsSja22UI+kW/Zku8/iPqBBhy3ZlXAPzMYrSzGs/xQJx/F7N24ldCf31GO62vW8zhNVAUVqEEQnRmXavSw0ZIPjp9FcIrvp8MEYgqVhMR3HZE+OulhunP00NoSTbCcW2X+JG/Thd0poSQvDS044jrB2iYsTz0vphsmFGZH+zoFMbKQ/ssgUF2h+ZMMB826AjfY/+UTA30rTJ8dGrywYwffW5xsbLOFfCLfsqcMH58MYPDdY7DMST9TjMrRGfzND0WK3Hqq4Ei4JEhFC5mpd6fJo254hByYNkOAvuYQFCbsgFE3WmWf47LRO8ZGWf0a+oSXMYnke10BxFnlefDcOnV+J+Ke7MZFWlMONcXMsL9+iPlE5Sxf1Sac9PLOhGfJI66/Gug07qNNPgm5tYgWCnsQ5OmD0S49XOSurbSmbtS1AmLuvM6hD/zF2WGazd22rYQf2UM24mz0ckM+kW+PhO8Q+htC6Gi/yAsYBVWoZmFxo7iuO3EMjQMB1PCXZhU+edRnoRf6ckgicconhz7Cwfc/SK3l0scVFy78ZruW+6LPh3379qPUu9zJjg59t3ziu2/x1bGveckC0AcY+2fw3tVDbKwVmcTxXQ0YbBjAeCqv5RNUo/wQLOcVzltx4WrLQ9qSj80II5FkgfzkUWfZhasLVcwI/VK0kmXF7kcGq8lj+SMDieRxR/6sTwpXkqNQ2Cx/SC+R5CgkYPmnayQSyWPP2mT2EolkSUjhSiQ5iBSuRJKDSOFKJDmIFK5EknMA/wNxjP+/tf7ciQAAAABJRU5ErkJggg==;" vertex="1" parent="4J6jqHoMn3-eWlfdIwtx-12">
          <mxGeometry x="360" y="44.5" width="160" height="20.84" as="geometry" />
        </mxCell>
        <mxCell id="4J6jqHoMn3-eWlfdIwtx-11" value="" style="shape=image;verticalLabelPosition=bottom;labelBackgroundColor=default;verticalAlign=top;aspect=fixed;imageAspect=0;image=data:image/png,iVBORw0KGgoAAAANSUhEUgAAAJ0AAAAYCAYAAADgW/+9AAAAAXNSR0IArs4c6QAAAARnQU1BAACxjwv8YQUAAAAJcEhZcwAADsMAAA7DAcdvqGQAAAigSURBVGhD7ZoNbBPnGcf/WyajSEZhMWW1FQkLqYYJ00rJqLBBtWvVTlpspCSgNS5aXCBuEJity2hHoi1YKC1omAEJKoSthBWcoJJEJWmb2Bq1uxGjUUcDjCCeFBkpclTURENYi7AUbc/dvU7Odr4gnTdV95OOu3ve89378X8+3ojv/ZuAhEQO+T47S0jkDEl0EjlHEp1EzpFEJ5FzJNFJ5BxJdBI5Z07RJW94YNqox6a6Howz2xS3mrGJa0sdr9hQe7QHsQnWjghaWNu2c1FmEzOG3jr221MRZstk+h3io+UWa/5/4EEP9lOf9n86Jtw/KZNx+A850NAdY4YnIY4uJ83Jzk5k/ToRgJv6te2jmeb+f8scoksiHOyE2mSE5noPAiPMnIFhXzNOHG/G7/bokeh+HztOh+mX6Yxe7Edkkt2kGAmg9zq7ng+Ti/9G6rCuZPbvApPjiN2N4v5YImve5kcF3ata4F4PBu8zEyPxtwD80KDqJQ2zPC2cU7iw/dxsgeHJmV10D0kU3SoYfuaEdU2EBDKzJyp/XIKS9SXQlTvx+gaS6ugYEqyNZ4MOuolO+AbTpzTqb0fEbIGZ3c/Js+v4b6QOdQGzfxeQaVHjHcCFXVrImOlJUG60QYcozW+cWTgSCH/pA9ZS26IddBxDfWHE/sVuvwVmFR3nKUGlFbrn1NAaVYh2BGhos5O8P4DgTRnMZXoUMhvPqlJYTEl0fTowLcbJCHwXv0HF5lIomOmpGAuj45ATW17h0q4RW3Z70DucEjdLzSd7EDzioDKhDr0PyHqKe7YZoXvt2F9upGsLfu6NIjkRRcc7Nr6cKHN6EBxlb2HPT/s5e+9sJcHDiKhP6e+aSsWXfOj4hYW9N/t944PtcO8W+pJdtmSwQg8DOXvk8xBSn0HiKwT8gPZVHZTc/UQMvUdZn/j3BTDKMs/UfAx3ws3mY6qd768THdyDXic/Hr60mWuMkwlEvPXY/hprs3sQSotCs4ouDt/HASg36ylAA5oNVihHe2mhhFYxHbuFl5vsnZDvaUGdQc5aUlC03FIJmd+H0EPBkhzsR9cyB6zFSwXDfLABC4cgHkzQYrlcaI3/BK6Wy7jifR829OCw8wD8XHuKS+24bW7B1WseWFcwGzpx1qfAnuY2NG5djvCpeuzY3YbH28/g4vEqqO/QAnRklwkLYuQ2Ytp9ONPpw5U/1mEdLWYDiUZcE4fO9kP+Kx/+es0FSo5pJKlW3uc6g9ESF05f6sEFtw3oo7Kl0ZddV/MoYCwzAncGEGbjFlKrFpb1Kr5m7G104PDgahxooz61OLC0rx77ydGmofn4WIaqM16crl2HaHc9WoOkFEUpGj/zoIJ7ZKsHfZ/54FxL13OMMRE8itpTURS/e5mev4wmkwyJjCg5s+hGQvDdkcFQwuqBVXpYlXGc/3O2d6dquhMHjRg/S+o/kD05smIbqpUBdF7lUkACwSudUHCCzhPa5yWtpnsTJcsoGgTPoeO+FnsbnDCvUaFwpQ41h+thmAih/UtRKWB2wlGc6Qh6VFVboC5Sw1xRSY4Vh8zqRPXzKijX21G5kRZ/JJ5eJiyUtVX4dbkWygI5CtdUorqcbFSaiJOfsvotWIvYTRpjCF5oR2ytC427LNAUKaCmSHP0XSOS17wIZNRtKeQvGmFACMEb3GaGpdYNNhi5b9zrxbFry1Hz2zroioQ+1VSrEDsfEEVvmo9aGzQrVNDa7bzI/HdpDvNkkBcsFdK+bCldyyHj1mwBY+SQyVUo2eWCOSOdzSi66BdUb5Gfp6LYppccOEvhM9ndj3CG+6dquhKzA01vc5PTjwFxpOHI00C3WSWkgAdfwHdViyrzExS4aTUdDZZmIT4SpoZ1tDDCIzwFJBo6Rb8WyeWZ5ciUHPWaJoxd5sv4FK/IT0VdBZSLqYMSUfi9HjTsdGAHpataL7OLUBfOVlSMIjZIpxdWC2mRIf8RPyrEWabIokAPo4ki6PUwEsnbCFNqNZS9zJc547EhWsk4zu5MZQo9bfZIHhOPhd/yiOYjbwm7mIM5xig3UIDYtRKBQ1thKrVRRI1kOW+26CajCH1Cnl9WJ4oudLxtgYw2BMGMDcFC0ZiroL3TjmMUhkMpL1wEqqIS+vc2ouJd9cM4X9fo1OIlWyRLOD9P4lFq2JPixcokjq5fOuAOK1DlbsHJj3w4YWdNC0IJdTGdbg5N12dE4mt+VFA/K9xnI4fuZQtwNYBA3wC6YITxRcHVCtWrKVKpUfOBj0+P08dbWal9YcwzxjwFSt704Eq/Dx/Waqh02YvWDM1ki+4fA+gdlcFaZhNFFzrKt6IiH+iiQYmVm3yUQOJBDBF/Gxp+H4BsYyn0U7WTiKJSVJriCF2LTHnhYijU2WDOp7quqRX+e3GM3w/jfNN7COZbYN20qO1JGupVVC9RrXj+T2GK0jH4T3qEwnpGxjE2zJ2XQEZafTTsRUc337BAFNCVkXPfaYb7Dz5yqDHEbrTBfYTm1UyOOtO8MrgUa0YAx2jjBLMFulTkeo5S58oYzn/gxe1/cg7zGN9EetD+90dC+wJYQuuO4a8QoTmODM89xnHSQcctKk1IJEufUc24UcwQXRLhz9swmm+D4QU+k0+Tp4WxnGyiDQFH1zsWlJXbUXukE49NB/Ch2zKLoJg35leiImuz8RQUGNHobUb1DwPw7NyKLXbaQPzAgRPegzB8i39SkRucaCrXIHbOhW2O9zCkc+B11paNFtb6SmjvNlPaqYD7L6th2cKaFojcdBCXjzuguHoUO35qw3baQMjeaMbl3xhnKBNEyPWwUG2VnEiiokw//Sz3J5lmYZ7cdhvKXqvEvgtDUKgWuInjx0T13s1W1O48iPDE3GOULUsi0Gin71jwxvEh6OrbsHd9upak/8QpkXNm3r1KSPwXkUQnkXMk0UnkHEl0EjlHEp1EzpFEJ5FjgP8A40ttqoxN2EwAAAAASUVORK5CYII=;" vertex="1" parent="4J6jqHoMn3-eWlfdIwtx-12">
          <mxGeometry x="360" y="20.5" width="157" height="24" as="geometry" />
        </mxCell>
        <mxCell id="4J6jqHoMn3-eWlfdIwtx-14" value="" style="endArrow=classic;html=1;rounded=0;" edge="1" parent="1">
          <mxGeometry width="50" height="50" relative="1" as="geometry">
            <mxPoint x="120" y="280" as="sourcePoint" />
            <mxPoint x="430" y="120" as="targetPoint" />
            <Array as="points">
              <mxPoint x="120" y="320" />
              <mxPoint x="360" y="320" />
              <mxPoint x="360" y="120" />
            </Array>
          </mxGeometry>
        </mxCell>
        <mxCell id="4J6jqHoMn3-eWlfdIwtx-17" value="" style="group" vertex="1" connectable="0" parent="1">
          <mxGeometry x="40" y="80" width="284.74" height="192" as="geometry" />
        </mxCell>
        <mxCell id="4J6jqHoMn3-eWlfdIwtx-5" value="" style="shape=image;verticalLabelPosition=bottom;labelBackgroundColor=default;verticalAlign=top;aspect=fixed;imageAspect=0;image=data:image/png,iVBORw0KGgoAAAANSUhEUgAAAh0AAADkCAYAAAA8YpYfAAAAAXNSR0IArs4c6QAAAARnQU1BAACxjwv8YQUAAAAJcEhZcwAADsMAAA7DAcdvqGQAAD1hSURBVHhe7d0LdBTXmSfwv3iYh1+xiYgA4aE9kImjVWaQQ1aPeJIj2yIJ48RIFhlaexbZOGa84GVDlGw8EuIgpHUmQ5xlgI3xiUBkVk0sIhGPh7ElbG12HKm1iy12kDXxRLLbCXoZ+RE/eBgDvffeulVd3eqSuqVWSYj/z6etqltVt25Xi66vvnurlPTmm28GL126hMuXL1uvYDBovSTzJxEREVGkpKQk66f5mjZtmvWaPn26+pnU29urgo6RAg87BiFERERXLzPIsBsu4DBfSbO35zKCICIionH12oN/f2UEHSc3HtRTREREdCVZNi8VcyruxG/vr8E0XUZEREQ0buQwDgYdRERENO7keFEGHURERDTuGHQQERGRKxh0EBERkSvk4zYYdBAREdG4Y9BBRERErmDQQURERK4Zc9CRJP6bOW0G5syYhbkzZ+Oa6TMxLcm52qEPTiUiIqKrwaiCjmlJRqAhg4wbZ1+LpfNSkbU4DV+8JR3pn7oVyXNvxLXXyABkhgpApk+bhjkzZ+GGWdfiZrFM/pRBiiwnIiKiq8OoHoN+/TVzsGzeYnz9Mzn46rIsfPLaG/Gx/INxwcuYPWMmzlw4j3/+3Ukc6ngerw7+DrNmzMB/+NOVyP/sl/BJEXQMfPC2WPYCjvzrP6P3g0FdqzM+Bp2IiOjKZD4Gvb1wT3xBx4xp05F6QzJW3/bnuPOPP6+yHZ2nX0f3O71459z7IugIqoBkyU0L8Kcpy3DtzNn4v73/iutE2YpFt+F472/QLwKOxTfOx+0L/gQ+EZT8z39pxFtn39N7iI5BBxER0ZXJDDpevm937EHHrOkzVUbjkX9/H77sWY7e909jz/85IoKOAN47/yE+uvSxWm+6CExumDUXSz6Rgo3/vgB33PI5zJw+Hc/8Wyt2+Q/jbRFg3Dj7OvzXO4qQNn8J/vrYk2g99Yra1gmDDiIiuuK9fROeaZqDw28kGYMbLgM3zLuIwlUf4EuLzhrrTEH2oCPmQRXJ134CG7+wWnWRPP3qr/HQ0zvxvwLtOH3mXVy4dNH6G/qyi+UPIgj5l4FulDy3B0+98gLOX/wYr7/Ti3fPf4D3PjqDN8U2T3W8gIuXL+Orn87UeyAiIpqKZuO1ZxfgW0dmIjX3bfzs0V787L+Kl/i555sf4f3Gm/Ct2nl4XwQhU11MQYccMJp9y7/DN277c/zs/z2HgyeeFcHDh2rZvLk3IPfWDOxZ9W084/0b/Cy/FA+vuBe3Jf8RLokA5KBY/6W+f8Nffu4uNZ5D3u1yUQQpr771e5Uh+dOUpZg94xoVsFz5BvHM+ofwTJ+epQnwMn7yyd04IaYGGx7Cp9f/UnwqBjX/ycWq7NWIZROu75fYpNttTI/i92i0200k1Wbxmch2n7C13348iK5oM9DTfBP2Xz6LPQ+exvJPfaTLtRv/gHseeBPbbr0Gf/3UTYhYOuXEFHQsuuGT+PqffBGvv9OHv1djMP6ggoRPXXczHsy4B3+T9zAKPvtlfPGP0vGVZZkoyVmLH3/1P8ObfjemJ00TQco/4Y9uTMGym1Mxa8ZMlQ2RY0DePvu+GveRPPcTar3EkCcd+SVmvvjFdbVKzn8Sv62+F8lq7mX84iHgRydPqbLPhC2bZBbeiz1vPYl7Fur5WI12uwl0wvcI8GQ7fivbvfzKaz/RiPpvxg9+fwHlq97DLDl/+Xr875qF+GpZKr5Vk4zXzsvCi0jNGsR/mj0H+zvVWlNWTGf6Ly9ZjtQb58N38nm8deYPqjtFBgv5t/051t/+F/jjmxepW2dnzbhGDRpdcP085NySju//+X9Q4z/6PnhLBRj/7lO3qltn5SCSi5cvWcHLJ+Zcp27DHbOXdosg417gOXFieUu/Ti5GW8OkuZ6lCZWOVJ7QJp20WyZl6EeUADPwr60z8KU73zYCDuF9/3U4vPBDPFs5gB/96XT84Nkb9ZKL+GzuBfS0XI/3dclUNGLQITMQX1ryZzhz4Zy6+0QOGJVdJCnXzcO3Pv919L0/qIKHSPL5HPOv/QS+/pkvip83qcyGfD6HvOPF9LEIPCQ5+HTsjw17GT/5Soe6kn3487pIEld/D+eLLzWZrg1Lp4d3hVip94jsyImdi7Gp4WWxbvTMiX27TQ2/16WmiKzLzpd1+VByP6F6zFbat3dOmzu1XQpvn3wfZj2ybjHdIAO10D6jt0Oyt0XsQwZ45vuxUuTG6ycvGcXOwvdtbaOCxih1RNQf3q7wNtu3U+9dtlFtfy9+jB/im3p7a5nJtu/QMQz//CL3a2dvQ+RnEMn5GGv2rgU9/Yz1ORqfX+hztf1eRNlOfU5R9hXWXqduJlmH07+ZEeof7nfSIOtajG/+APjxV3Qb7O2PMHJ9RJPRHLw2cAlpi/WscMPt7+FHuTKsuIgbFl7CrA/k+U+78SNknpmO1/TsuLh0AWfeO4OPjdPvUOfO4Mw5PR1ppG1jMGzQIR/eJQeQzr/uJgyefQ+9IsCQ4zTmzpylshYyqGh67bjjE0hl+S03zsfC6z+Jm+Zcjw8vnMXFyxf1UuN5HzKAOXvhvHom+5i81Ioff+NryBzVlewg2l7/Glp0duSp74uTk+2E1PTQPmBHlGXiCzfnaGi7bdiH7zxtLDK+VO9Fp0od621xb9STjPxC/SZ+aa23RwZJensra3Pya2j8XPQvb8e2D9s+6Vl85/Vsa5/h7WjHyqMZ+iQe0Za3stH2lR+qGqTBtlNYKbst5LLnvidOIrGcFEL7NrYRJ5Nf2efNOsSJ/3OPIM3at71dQ49d5q9kcBFBdTv8Et/G9/CUWMc4vjbyxPkVqGWyjpYn9TeE+J0KHf/dwEOlUQM/1Ybf7LaO82+fA77pcCJ3PsbD+SEaUaXbBnznc4ux3T6/1SFokEGWeUzD2v8y2mxt+BEewfZhAipnTvUP/+/JkIx7quUy4NvyGA/b1RVLfUST0Qz0XLgc/rs9+yxmyWvv8zficN01SPvCGaNc+QCpKdMx+LaeHQe99f8F6+/7S3y//pQusfmwFfu++ZdY/82/w/81hm2GGXbbGA0fdIigYd7cG1V2Qj7Q69zFj1RwMFsEHZ9N/iO8+eE7KhA597Hz0Bc5CPWWGz+l6vnN4O9w/uIF1ZUiy2Uwc+HSx/oZHwkYtnvb4lH20YsvwJLQl97yL39PTxnynqyy+pnVst+cEl+D4kT8kx/i2w+HtkvOr8KPvqFnXvo5voPd2GY7wS33ii/moy1DThDJt6TrOm309veZWZuFOVj5jQ70DDnpObV9hPYpX8WPvLfraT3mwZpPRuaqr6Lz96JVkW3B7XhYBAam5PxHQv3wn88WJ/dY2PattomcN97rYMM+/Pj7v7Rlr8T7fVgEJb+SJ53INov3XyKDi/ic+JU4Ts89guV6Pjn/XmP684+E9quOv54Oo9uww3bS/PxfihP5P6FtyGc1zDEe1vewXv8eJWd+DXmR80+fQo+aiySCrBK9L9X+Z/Xvj/j8zHLdhtFxqn/4f0/xS3R9RG65hE+K0+zQf+Gz0FZ3Hd7KfRsPf8Z+/rwOg29dQvI8PTsOrCyFfsxFGLHsgpoQ/4+SzRh22xgNG3TILMScGdeoh359cCGUb5FByPWzrsU75z/A7987jR4ReDgFDTIz8rVPZ6rgRAYdZ0WAMj1pugpEbp59A3rleA8RdMj1xizyxB0PW5r407ar+CEWLhZf+qavDj9GIDIIEtumRTtBiJNby6p/Qo7ct/0K+elHjDL1ysB3nja/1CM4tn2E9g3xrLqKNuvKeehZNL2uu4yGDejs3RBRMg1jlHfrLXpKk5+B9VmPdZzGIHp+43ScZIbHfF/y+OviISLbkIzU2xw+q+GO8biSbdKTgsy42NswduH1x/zvKVaJro/IFWexNGU6Ovv1rGUmPrp4EV9KU6NIQy7MQvu0S/hjPTselqz576j+xc/xgzW36hKbG7PxyFM/R/VTJfiCOdTEZthtYzRs0CE7PC6JgEOO8Zypxl0YPr58Ee+fP4N5ImiQGZB/ePXX6qmi0QKPT117E1Kun4cnX3oab555R5VdM2MGviC+oeZeMxv/+40TY+9akeTV8dPRri5jIL/QfrLYlh6P9Uoq8sTye/TYT0yRQVDfKXR+YzFS9aydutNC7FsFH2bqWFzhq/bYXmHjVaRh2z5C+4Ywuh/C9mleyUa8l8Hfd+gpGXDsQ6rZvaK6MRJryElZHMcmKwiKyP7IY6wnYxctQJABRwZ6HjbfV3tElsguMgM1XCAzzDF2iQw4cl7fYO2/5cnRZjocjPrfk4NE10fkmotYvuISmppvjrgV9mN89ovnIs4FM9BzbBaQ+SFu0CXjYvo1uPbGazHTNpQkzJxrce0cPR1ppG1jMGzQYT7oS5JjO8zbWs9+fB4n33xN3TIru0heeP1l/PDXPrSe6sTAh2/jwwvnRBR3QT2Ho+vtHvz0pWdEYNKCsxc+Un+F9lPX3oy16Xch8G4/XnzjpKpz7G7Hfaq/2zawTur7JX4i+6tVliEUlAw2lFpXruoEaruSl+n2kRlp6R//JJSZUF0BetoIgsL7ytXtgatyrP1EY3W1yO1/cO+I/f3ObR+hfUPcjkynvnL9Xn5htUV2E+irY3WSt13py7E1ejIRVPdB2HHQ3UZflidq2eZn8R1fqM3yGDfp6djo42QbhzLY8EsxLQM0W+DQ14LGqAGbboN9XIXqjoo2vmiYY+yinteftWWPBtF21CHTMcy/meGM7t+Ts0TXR+Sqpe/hP02bjR/4r9cF0nT0vDEz7C6Vjzrn4a9f/xjrb4/IfkwxIwYdg2feVWM25KDRT8yWt7ZOU+MyfjP4hroV9j/+2VfUuAz50LBv/9Pf4UctT6Gx6//g1787ibrO/4XvNf0PVLcfVU8ulWTwUrz8q+rvrzzz6q/RL4KURFHZgufSw9LXn94K3Kf6v82gxCjfjg3Wlasa6/Cbe61t2sTVaCzk/p66LdQFYq9T7u9hcdWf9lCGVW/1re1DBzEK9lS3GtCoBtWJ7U/uRqccYGkuizI4cbi2D9++oZaXiKt5W12hOyMi29KKTPNqc+G92PZkh7orRC37FUKZDnmFOtYTrBwEGrZvI/tgZnwi29z25fgzLfI4tdjeQ85RiCsQOW7F9ru09RTSHI7d8pJTYcdZXZU7DIx0PsbukeNeQr+Xpei5zSnT4fxvZjij/ffkJNH1EbnrPJZ/832sfP0GbDp8MwYvyFGkZ7E8720j03HxOpx4dgE2/eoy/tvDg1G/N6aSmP72inz4V8aCT6O8+ado7/utum325jk34IGMVep1qOOY+rsqMsMxpDJRENSlMuDY8PlvYJ0IVGpPHsOTL/2DClxGwr+9kiiyK0QEDG+FBk2OlgyU5B0U0YIok1znF7c8ObRLiIjoqjMD77/+CdQ+Owt+meIwL/mnXcbKuz5A0fIot4tMEXH/7ZWjv/XjmukzsCYtV3WnyOdtyFtgb71poXqEufdzeSowSf/UH+MTs64TlSapcRryJbeT4zruvPV27Pv6d/EXf5KNn3c8j30vPT3iX5elxDqx8178+PvZYw44ZJfV9oeAlZnDxeQybZ+OTAYcRETCRdxw61t4eKPxN1fU316Rr+/2T+mAI1JMmQ6ZoZDZiUIRdLzc9ypOvT+onr3xhUWfQevvX1GZDzkwVGY6TvR34Xd/GMCHH53FtGnTMW/ODSrK+WzyErXe86+9hCO/+WeV4ZBPJY0FMx2jowYM2u9M+MZux7T/8GSGJPyuFPlsBWYwiIhoJKP60/aLbkhGwWe/pAaAqoeFnfkDftH5K9SebFLBgwwq5DL5+HN5V8pHFz9WA0/lA8bkeI5nf9uGf/y3VnS906OCk3gw6CAiIroyjSrokMHDNdNmYub0GeI1HR9fuqRunb0gggtZwYxp09Uy+bdXUkWAIh8G9vGli+j/4G11R4v8ey1y/mLwUty3yDLoICIiujLFPaZDunT5snoi6fsfncE7Z99XP+VdLfKhXvIuF3kHi/z7LPIPwnW8+bq6e6XtVCdee6cX750/o26zlUFKQp7JQURERFecmIMOu+HCBhmEyABEBhkySFGBxrBbEBER0dVgVEEHERERUbwYdBAREZErGHQQERGRKxh0EBERkSsYdBAREZErGHQQERGRKxh0EBERkSuugKCDz/ggIiKaCtRj0M+Vv6BniYiIiBIr7segExEREY0Fgw4iIiJyBYMOIiIicgWDDiIiInIFgw4iIiJyBYMOIiIicgWDDiIiInIFn9NBln379ukpIiKioTZs2KCn4mM+p4NBB1lk0DHaXygiIpraxnKO4MPBiIiIyFUMOoiIiMgVDDqIiIjIFQw6iIiIyBUMOoiIiMgVYwg6TuDtvz2hp7WOGni93ohXDToHm7BN/tSrJU4nasqbMKjnXCXf0/5o72gQTeVe1HToWSIiIlJGFXScrX8Qp+u7Me1W4N37H8S7fXpBejF8Pp94lSJvaTF2qelipCXnYbv8qVeb2pKRV+FDcbqeJSIiImVUQcfcgp/iOjTiwrf2AlU/xU0L9QJHnagxswIdNdjW2KmyAVYmxFgSkSlxyIyorIleZ/9xXSgZGYZht5XtiKi/c7857xXt0jkT1cYmve42NIlia72I7EZoe2M9oyzO93Ql6/GhIKkAvh4972gAvjVV8Ou5ePl36G3bqpC0xidqIyK6Op0/qydiFO/642mU3SsncO4fV+L6V1bi49qILpYYdB2sAx6RWRAfdq0LoEqeyGUw8RhQqrIjtvIwIrDYXQPPo8Y6vhVAk17SuX+PVadv10LURdu2vAowt9WZl7QHzPldyGk5agUFXQf7sELVlYOWzV4cX2GsU/xGnRVc4PkqXS5ej3pQszuiqyem93RlG3ixHigEig6MNpyIU2YpgnVepOhZIqKrSp/4vv22uN6P8dR7XqyXK9b3mT0SE2yUQcdyzDtQiLkLCzH/u8t1WeyWrduEvGRjOjkjB8ve6MWr7S3AulVWF0zyyjXIE+XhJ/ETaEExVpldF+krkKcmOnH8+S7UiOBAZRQ216BrpG1NVuZkM2q6A+jVGy0z25K8CJ6l5nbJWJ7jkROGu0pD3SiyLd19OK1npcFY3tMVbQDNRzJQUleCyvLm8CyGzEgkJRmvHf8I35oFKDpchmwxX9Vmy1woflSZ2QuVOdHbJUXJjIjlVYfkmmIbaz35MrIt/h2hsgK1niDaUnBIbCfLd7gUHBERjYeFQO1fAUefGDnwUAGHWG+VWN87Yo+EO8YwkHSyybMyCupVkSdChJF0ikClD2v0NqV36WKKTU8z6tNzkSX+y60oQ7MIJoxyEThkAa3BIILytfUv4K3rR21hpSorzdTrRZPqRb25nYgPdpqBwxBZKLXWq0S+by+8qaJ0qy4L9qPgSLUVtDR4A8iV5VtFw4iIrmCzxbV+8wiBhz3gKI0/NzBuJiTo6Go5YV3tdz5TA+Qsx2cycoCDoe6NwcY6NC1ZFB44yKxDdwtOmBt3HNfdK/OxcGkT6swxGdEkL0cOanDUflfJYC8CSxeKrSWZLVETsXv+eHh771oRNlhWZnFGfE9XMNm1knG3cRLPursSZceMU7zqcvGtF2HB6FjZiqwyNHQHdKkDGeAcy0X9Wt3hYmVKZGalHQE91iR/DO0hIppshgs8JmvAIU1I0LFsSR/26MGVVSjF9pXiNJych01yzIMu39ySg10P2E/hUhqK5dgJsxvluMxvSPKOkVJ4Dm42ysXLGhRqEes8UozAY3pbOahT7HPNkhpsVvOisngzHWL943p/Udsb03u6UvlR7W1AWVYoQEBkF8soDBwqwM6l/Ua24lQt8nV5dAPwbQmgxMpe+FG1WMzrDEhrhS4mIpqCogUekzngUORfmXXVyQPB8udO6xmaTJ544gk9FQN/ZRAVrXrG0O/LD+b7+oMiWAjmozIYsTRYWxgqEwFBsNJvTMvtUFgr1ohSrvfRWqG3FXVXyn0Icrm5riL3q+sRWwQrkR+sPSUmRVtVu4iIpqBz7cFg1kPBYGmN8bNSzI+HuM4REWSs0dnZGZxCYzrITf5jZajUXSumlDsKgCPNGEj1Yq+vXQ0aVVkQNXgzBbmrjTI5kDTr/lq06yzJRhSg0qgivLw7wznT0ePDRnumRdbb40VJehEWqPlmgJkOIroKmBmP5tZJnOHQkmT0ca78BT1LV7N9+/Zhw4YNeo6IiK4k8nkcs+fqmXEwlnPEnIo78fJ9u6fS3StERERXr/EMOBKFQQcRERG5gkEHERERuYJBBxEREbmCQQcRERG5gkEHERERuYJBBxEREbmCz+kgi7wHm4iIyMlYn9PBoIOIiIjGFR8ORkRERK5i0EFERESuYNBBRERErmDQQURERK5g0EFERESuYNBBRERErmDQQURERK7gczrIwoeDERHRcPhwMEoYGXSM9heKiIimtrGcI/hwMCIiInIVgw4iIiJyBYMOIiIicgWDDiIiInIFgw4iIiJyxRiCjhN4+29P6OmQwcZt8JY3YVDPK4NN2La/U8+MQaLqiUK2u6ZDz4yoEzWR7zFSRw22NUZfo3N/jaiBiIjo6jKqoONs/YM4Xd+NabcC797/IN7t0wsUD/KWtGCPwwmXppIB+NYkISnJfBXA16MXJUJbFQoODeiZ+Pl3JEXfPs56Bw4VoKpNzxAR0aiNKuiYW/BTXIdGXPjWXqDqp7hpoV6gBIAVa+A5uAdNUeOOQTSVe+H1Gi8rG6AyA02oUeXb1Lad+/V6EdkNq1yvZ5SJ6cYaVW5kLDp1XeLlkJWw13O0VxdKoi1Gua19FllvFZq6a7A5sp1D1j9te69Rshsyc6O3i7p8UpMBxwLUr+5HMBg0XqcKUL84wYHHGGRtDaJ+bYqeIyKaGs6f1RMxinf9cSUfDha/9uBbxXXBM711wTd/2K7LDKefKw8eOCkmTh4Irt3aGDytChuD5dWvyKngK9Vrg+XPqVI5FzywtjzYKGfl+msPiBJBrr92rVGPqKFxq14nrFyw7UPWu1bvw9hG1yWJ9UL71OztU+vrem1tlV6p1vsOI9ptbWtn2696P6Ft5XEx2/dKta1tpmhtdNkTTzyhp2LgrwyisDbYr2ctsryiNRg8VRvMFz9bKxAUv2bilR+sPaXXEVvVFprlCOb7dC1i23xfbbBSln/rIWu5sR+xTYVtf7p+o67KYK0vX68f2k+/T5Rb0+ZyBCsr5H6MmkLts7VDsLe7skK8/HpBsNVon3xZ7z9aGRHROOgNBvMfCgYrw0+9js6J9bLE+rViu7GK6xwRQcYanZ2dwVGO6ViOeQcKMXdhIeZ/d7kui5BejNIlNTgaNk6iE8efz8Oalcl6Pg2r1gF9OtO9bN0qUSIkL4JnaTFWpasZLM/xyAnDXaUoVuVC+grkdffhtJpZhuJ71NbA4Am0dDehyswiPNaErl5jLVPn8SbkFeaJ2iW5j2VqarC9BV3PV+nsgxdVz3dZ7XNkZSw2o6Y7gF6d7Fi2bhPy9FtNzsjBsjd6h2RcrCxJlDZOZgOBduSvzsWQPEKqB/kdAahDVp6N5rt1FsSfgaItPlXu32HPkLQiw7vRyo40eAMQYTCCT+4T21RCBAII1nmH7idMGeqxN7SfA35drvX4sNGbARGiqHVyxfommQ0x2tGPgiPVUFu2VSG7oxYieBDle+HpaFDrGtmdZqN98rUlgI2HBsT7yRZvSpeN2FYiojFYCNT+FXD0CaBq6LDKMOfF8lyx3iqxvjesR2LijOvdK2kPlAKPTVC3gQhadvl88JmvB3RAEoNl63aFthMvK8iJqhM1m/uwRq9bepcujoEcvFq3SO9rV7EIm6aYilaUZurpzFxUHg4gIE7rzeWVKLG6PbKw3gcEdNCR71svSuJlq0/ux5iyDLxYD9jqzbrbtoYISArUeJQFKDrcrtrhP1aGyi1m8JCC3NX5ago9zag/XIZscwxLVhkaRJAp6yvLmjzdSkQ0tc0W1/rNIwQe9oCj1CE3MBHGNeiQmYziR8VB2d1iza+4qwl11riHThw9KAK3eC4Nnz9uBTGDjXVoumuFkR2xk5mS7sgsS7j5i5ah6bhVE060dKmp5IUedB08GnugNNiLwNKFmK9mZCZHTShdLSeszEbnMzVAznKdWTGc7u2CZ6FRojIsaurKkOLJUCfcIXoCaEj3XCFX+35ULQ6gRGcuWit08XAKzQyIfm0VoUxmqZjeC2wRgcgaI5tDRDSehgs8JmvAIY1z0CGobpYu64Qqsx+eg5t190UV8Oh2qwsiJncBx3XXx+aWHOyKmsEQwc6uYgQe010X4hV5O2zyyk0ofsPsRtmDviU6zyDau2tdINQ1E3WApwieluiBpMjDGjUt1z2u2mdatqQPe3Q9VSjFdqtbyZB2T6iNe3o9V1amI3M9ajuyw+8CkVmDrHbU3q9zCuXNRneFMHBoJ8oqcpEl/sutKMNOazs/qr2AJ1XPDqejHs06m+A/UASz02MkKkA60mwFAzKToYgAqb3QA6PzTmZg1AQ8S/NRdsxqOZqP6D2lepBxuAjVUe9kSYG3rh+1kNkcIqLxFy3wmMwBhzK6gaQ0FcU/SCh8QChQGZRDOxU10LPSYYClbeCleFmDNNVAUvswTL2eua0cpGpu4wsfSGrtV26jysMHktoHjEYfSCraWmEOQrW/r4iBpPJ96XpUXaLcaTAqEZEbzMGipTXGz1gHmcYrEQNJ+aftyZLQP20vsx4HPKiX3Q9ERDSu3Mhw8E/bExERkdHV8uNJ2qViw6CDxkeql1kOIiIXzZ6rJyYxBh1ERETkCgYdRERE5AoGHUREROQKBh1ERETkCgYdRERE5AoGHUREROQKPhyMLPLBL0RERE7G+nAwBh1EREQ0rvhEUiIiInIVgw4iIiJyBYMOIiIicgWDDiIiInIFgw4iIiJyBYMOIiIicgVvmSULn9NBRETD4XM6KGFk0DHaXygiIpraxnKO4HM6iIiIyFUMOoiIiMgV4xh0DKKp3IuaDj1LREREV7XxCzo6jqKv0IfidD1PREREV7VxCzoGU1Yx4CAiIiLLGIKOE3j7b0/o6aFOP7MZ3v2dei4OHTXY1jioZ2wGm7DNWwNVo9M6RERENGmNKug4W/8gTtd3Y9qtwLv3P4h3+/QCSyeOP78My96oQ1OiYoPkPGz3FSNNzxIREdGVZVRBx9yCn+I6NOLCt/YCVT/FTQv1AlPHcQTWbcKmHKCl3Yw65MDSGjQ1boPX6zWyICp7Iaa92yKCk9NqEKpaz8xuiP/XyG06auB9rAldBzfDW94katXL1LrGi4NX3TIA35okJCWZrwL4evSi8dJWhaQ1PrHnePhRZdvGvyMJBYfiq4GIaLI4f1ZPxCje9cfTKLtXTuDcP67E9a+sxMe1Q7tYOo8HkJORjOQMGXWc0IGB1IQWbILP50MpquDdDWwS075HPah5JtQV03WwDnhElItlu9YFUGXvpkkvFuvnYdm6XfBV5CFZBTNVwKPG+r5dxQg8ZgYqNH5kwLEA9av7EQwGjdepAtQvHufAI7MUwTovUvTsaGRtDaJ+7VhqICKaIH1A0bfF9b7z6IYw58V6uWJ935AeiYkxyqBjOeYdKMTchYWY/93luszUieNv5GB5sphMXo4cEWacsKKOPKxZKRcA8xctQ16hDBqE9BViSciydZuQZ6ymApdlb/TaApcIgyfEHoqxyhy0miz2cVcAvY4bUEK0VaMItdhrP3mnelHvz0DRAT/Q40PBDhEEykyIzjLIDIOZEanaIV5txmahclsGoq1KTPtQZWZRdog6JVFvlVrHH1qmXkawM7QuuV42yg4XYYFeZ+BQVSgwkpkTq44qsbbBL9rnE+uZy8y2EhFNqIVA7V8BR58YOfBQAYdYb5VY3xvZIzFBxjCQNLrBxjo0dddgs+rq2Iya7i5bFwtNFQOBduSvzh2acUj1IL8jYHRllNcDjweNzIQ4uWd31KJfZUX2wtPRoFaXZObByJb0o+BItXXib/AGkKvLazt2RmRQslBqZlj8lcj37YU3NVpdcr1WVBbKfderdSwyMMoCWnU9/b52ZJvBDRpQ1J1r1HWqFu2Px9ulQ0Q0PmaLa/3mEQIPe8BRGpkbmEAJDjoGcaIFKN6luzrUqxSeg0fj6u7osnXJdD5TA+QsNzIi0ahsSg2OmuM4BptQ97wHixw3INdUlFgnef+xMlRuMbtFUpC7Ol9NKfLkrzIKC1B0uB0BHVzk+9aLkEGS62eoqSHktsdyQ90lDnVFM/CiCIqsfYi9rC1BpRkwIR+19+slqbko4O3fRDSJDBd4TNaAQ0ps0KG6OnTXiiUNK+5qwvE4BncuW9KHPXpQaBVKsV13yVjSV4hAxhxImoy8R+Q4Dj2QdLNowS7e5TLeUjwZaOgO6DmbngAa0j1xjLnwo2pxACU629BaoYtjMgDfFrHtVjNsGEtdRERXlmiBx2QOOKTEBh3ytlY1uDNc2gPyyaQiOKgIBQPJK7fbHh6WhuIH9JL0Ymx/QLzMTIlZbl9HTstl5r7U7bRmZmW7NR6ExlHmetR2ZIffBaK6K9pDGQIbz9J8lB0zuy4G0HxEd6+IIKW90AOPmvGjuVxNxGTg0EYEtpRamYp460q5owDwhrpzBg7tRFlcARMR0cSyBx5lByd3wCElfEwHXS1S4K2T4yYWWIMtk1SWIWLchJaydq8KUox1RbCQrrtXUr0oSZeDPGV5MxBrdkIEOBu9DSjL0vsWr6oep7qykKvKI+6sEfveK8dx6O0XHClAv5U1ISK6MpiBR3Pr5A44pKTZ23OD58pf0LN0Ndu3bx82bNig58aTvN12I/B49ACFiIjiJ5/HMXuunhkHYzlHzKm4Ey/ft5uZDnJJ2K2pCxDYwoCDiCiRxjPgSBQGHeQO+VAvPcBTvkozdTkREV01GHQQERGRKxh0EBERkSsYdBAREZErGHQQERGRKxh0EBERkSv4nA6yyHuwiYiInIz1OR0MOoiIiGhc8eFgRERE5CoGHUREROQKBh1ERETkCgYdRERE5AoGHUREROQKBh1ERETkCt4ySxY+p4OIiIbD53RQwsigY7S/UERENLWN5RzB53QQERGRqxh0EBERkSsYdBAREZErGHQQERGRKxh0EBERkStGHXQMNm6D1+vVrxp06vJoBhtr0DSoZ8aiowbe8iYkoqpE69w//DEgIiK62o0u6Bhswp6WHOzy+eBTr2Kk6UXjKr0Yvoo8JOtZIiIiunKMLugY6EOXnoxkz4DUdOhCO5mt0Mu3NYZyFvbtzPIhZSLYqbG26USNXiZf5r46929DU2NoH1YbxLbbrPXNrMQgmsprxPpyP2K7yBSKra3e/TqPYS+LluERy+3vW7VH1iv3v79J7M/YVq5jvT8re2Nvj1wv1KbO/eY+7cfNdgwmQwaorQoFhwb0jBM/qtb4MNJaiTUR+yQioiHkw8FG45XqtcG1a8uDjad1gXTyQLD8ObPgdLBx64HgK3LquQPGeqcbg+XVssTwSrXeXmy3dmuj2MImWpnY/oCqX9a9NnjgpFGs6l1r7Eu1y9yHLI+sQ7LaadQTarONrU5LRNnp58qtfb1SrctF3Va7BOs9qm3N4/VK8MDa0H5lm41tItojj4HteBlCxzW0XWI88cQTemqU/JXBfF+/nnHSGqwsrA2OtFZiTcQ+iYimlrGcI2Ss0dnZGRz1mI60B2S3yhr0bRZX2ToL0Hm8CV0HN+sr8s2o6Q6g13b5Pdjegq7nq6wr9qrnu9AnLj/ldnmF4d0m0cosgyfQgmKsStfzyXlYc5e5r2Uovkd39iQvR84SY1KysgWPiXb2ntalYtuVQ/ci24p1q8K6jSLLkleuQd4bvbFnGO4S66tdzcfCpaH9pq3IUz8NtvakrxBzmpWpCR1XuV3TY1EyNK4YgG9NEpKS5KsK/rYqJGWVocG7AEk6q+DfYS5P0hkQP6qSslF2uAgLkgrg6xF17LBlIHp8KNjhN6ZlfWHbhpclRVlPtcMoNeqy1m3WhYaBQwXWNlVtupCIiMbdGO9eSUOxz4dSVFldCnmPmuM85Gu7PsmGLFu3y7bch2IzcBhnsiujbpHe965iEZpcSTpRs7kPa/QxK71LF8sxLr5NwG4RjLjcvTJwaCPqV/dDBLDiVYqszFIE/ZXI94myOi9SxDpZW+Uy+epHwZFqERBkoTTYisrCWvQH6+FNNeoaSgQnWUCr2jaI+rWiNhlE2MqCW8VMRFm/rx3ZKhgRwcyWImT49bp3A2VGxSpI2Yi9Rrlol+dxW6BCRETjaoxBR7j5i5ah6bDzyS95oQddB48OGQehrtgjtotWZpEZDNTgqG28Rt3zHiwamrCwnO7tgmehsYLKuKgpZ8kZOUBEWyPLBhvr0LRk0ZBsTNNxvYZqlzE5JoO9CCxdiPlqphPHw+pMRl7FLhSjD2buxg0pdxQA3gXDZwqsbMMCFB1uR6BHl48oC7kVZci2jcMYeLEe8K0XS0Iiy1LWlqCyI4CBnmbUoxbrM/WCzFxU6kn/MZ2NGVW7iIhoLEYXdIQNpvSiCqUqY5G8cjtKl9Rgs7ks8upbXJnvWhdAlbWtHogpyu3bqYGS0cos4kT7SDECj+l6NrcgZ9fwd9Ck3RNaf0+vZ+RMR3IeNtnbKruQIso2yzt4HojYa/oqFL+hu5B2AzlmVmIsZPeRdSyOA7rO0ODSzWjJCe8KGnepXtQHg8g9Jk/e0bIFflQtDqBEZyFaK3RxjFSW5HFgowgORh6cGp9KMwOiXsNlXIiIKKFGO5CUpp7RDhJqrcgP1p4SE/aBpKdqg/nW4M3WYCX0OmGDOvuDtYVmuawHQVS0GjMmWY8skz9RKba2iSjr9+Xr7e37E0S7oPep1uGgUiKiuE3oQFK6utkHY2ajxMgWZOYiwxxImupFSbocMCrXaQasTEcWclW5HEiaAu+WDBQtNuppXlqLfLWOHHBqlCUtrkfB/Vkqs7JXjtkwy+XYjYiyBUcK0C/HesixI/5QvUnHYHWvpKytR6vVLvHirbRERK5JktHHufIX9Cxdzfbt24cNGzboOSIiopCxnCPmVNyJl+/bndiBpEREREROGHQQERGRKxh0EBERkSsYdBAREZErGHQQERGRKxh0EBERkSt4yyxZ5O1QRERETsZ6yyyDDiIiIhpXfE4HERERuYpBBxEREbmCQQcRERG5gkEHERERuYJBBxEREbmCQQcRERG5grfMkoXP6SAiouHwOR2UMDLoGO0vFBERTW1jOUfwOR1ERETkKgYdRERE5AoGHUREROQKBh1ERETkCgYdRERE5IpRBh2dqPF64bVeNaJkEE3lXtR06OX7O9Wa6KjBtsZBYzohzH3X4Oh+r1V3537ZBiIiIpqsRp/pWFqMXT4ffOpVjDQkI6/Ch+J0vXycDDbWAY8a+1z1gA/bVybrJURERDSZJbR7ZUi2oaMG3sea0HVwM7zlTRhU2ZAaNDVug9e7DU2D9oyJnDc269wvphvFtqLcyJxoor7NB7vQ9JhYX9T3qljH3MYy2IRtVp2h9gyqfRrlYXXSGPhRlVQl/h+NWLbGhwE9F90AfGucth8v7u1z4FABkpKSjJd5LNqqUHBo+KMyOs7HW7ZjfPYZyd4GeZyTUNWmZsZMvodE1RW3MX1mzsch3vc0bsdAvD/r91Oz/+6G9mm8F6Pc/m/IqVx+P+hye/1yf7rcflyj7zPettBkN/qgo1sEAObJ3exKiZReDN+jeVi2bhd8FXkwchJNaMEm+HzbkZechmIzW7IrBy3PmPV0oaZ3hSoPy5yI+natW4Y8mekQ9c3TxWGS87DdrPNRoE52v4hAZE9LjpWZGe9szNVi4NBO8b1Siiw9T+FS1tYjGAyqV2t6ETbKL9jMUpR0b4SvR6807vyoPlKAvWtT9LxbUuCtC6I0U89etSbzcdAn7mNApS5RenzY2F1i/O6eqkV7lnFSHzi0EYEtxu9zv68d2TuMU71TuX/HTnhORfz+y0DkcQ/6Zd3BVmR49b8Fh33G2xaa/BLTvfJAmi6MRR7W2LpErAzE5hp0vdELI3GxDMX3xFNnuM79OhiSWZbe0yIQWY4ciCDJKTiiURhAc3cB1usv0/CrEXmFk42yw0VYkFSgvlTsy5PUF4T8wluAosNlyFbbyC+piKsk6+oo2hWTrcy60rGX2a+K7NtXI6BLFYerrhCHKyrxZVhg1inaPXJWJx8Fdxgn/qz7CxB4cejaQ4+RIPezQ/wbM9tg309YG5p1YYQ2Ub7FK059clpesftCx8L2RT3kalLt11wuj5/xOaq5HaHpELlO+GdufZ66Lv8OvV9bXWGfjblvzb5+dbculGK4UraO02j2bT9OD21AUlYZGrwLjDpFfVUR+zS2k78nVfBZbbAfr9DvjdN7CpWHvyfHY2DncDzs21aJz8x+bA1GQBTcmqvnDQMvBlBwv76USPWipKIMzW3h/95T1pagsrxZvC+ncj+aUQJvqlGedX8tcKQZA/bfR3G5st4H1It/C9H3GW9bIkX/fNXv7yHjmA09JjTeEtq9EjfZXdK7xghcfKUiHBk7GcTULdpl1LmrWIQvkjHexLfiOLtXEqWnGfXwGF8e4ot4o7iaNq5e5FVdFkrFVUxlYa0oq1dfPGFX/dgpvpDlF14/agsr0aq2UbVG5d+RLf5nbBusk19Y8gveVhaU2ZaIMttVkdy+3ddvlIurrPbDRr3qhHQsV9cRjJqB8O/YCDxu1unBTnUiFvvaUoQMc193A2XG6hFCX3rNdxvHQUn1GF/AetY09BjpBeX1VhvkFWO1eZKLoQ3+Y+3wmPsVGrwB5Kp9iGPfofchTlobsVfvux+ex8VxE23MML/IxYlCnHYRUO0RJ5OOAuTa6jQM/czDlGeLY6Db6s9A0RYZFDh/ZrJN2R2yLrlsLzwdDaoax89MrL/A9jsYurIW4t23YB2nJ/eJbSqRL39/1O/ecMrEvwl9HOV+Dpi1aU7vScjaqtshjn/Bkerhj4HdMMdjxG0dBLrb9ZTBszRf/D+AQNj3pgeeQvnTobwngLBa5O+T+HE6EF53ikeWOu0z3rbYDff5NqCo2zhmzMS5b0KDjsG+AJYtmm/MdBxHkzE1Jqd7u+BZaGRSBttb0KWmNN3dE+iLHAhCo5GxVJw8pdRcFEBc4dqunIcKnYCzy80TWGyy7q5EWZbtClUFPLXWlY4SWaauitrFfsRJsrwSJWb3gmyr/oIaeLEeDeKEZF4JDW2X3FZ8QS3WV0uLi9DQERBXuxH7yswNT09b5InY+NLLPWa/ChVfklG7+ByOUYXtilEcCyXmNmSEBR35vvW6OywFuauNL3z/MX0lr/Yts0/yuGUhVx0/cZwCQK1ffGkfE5+vPJmk62AzHhWtoS942dbD4sTh+JkZbaq0rohlW42TkNNnFr6+OE7yyrpb57Ti3LcUOk7xsP2eRfk8nN6TIoOHsOM/wvpabMcj+rZT2rCfbz5qzewJuW78g470FfBYA0nDJa9cYyyTXSHHZcfL2KXdU4yAHGgq6tzT6zEyHfbBpY8hrHuHEkGnae9uVl98Q1OW8qoj1L/b74vzCzCzVF2tYYv4Yh2xGyM+6gpWBwbRr3yMTIy1zohXu9HJYKHBPAlGNcZjNEaV5hWhehmZiqy7M1D/ogi8uj3IFSfRAnGF6RcnuYy7J/YLe+TP7Eojgs3FAZTo99NaoYtjlOjj4VlqBKOmQLfMkkQGyiJwUxlDh3Kd2bDozMd8ndkwDejMR/R9xtsWuhKMMuhIQ7E1MDQk7QF566yaQrE1zkMPFlXry24Ocx3JNpBUbGvWmfaAHGRqrBEpeeV2ayBo8spiaz1r37aBpNtF2XbZDvvgUnV7LyVCe+RJVAYH/kq0ByLDAvmlYF5xD6D5iFOq1+jHleQg1fDuAt0dI+vSmRWjm0GLLBNXjjvL5T5l6jVUr7oC0l9QMrXb4NWp7KiMbXfa+skV+YV6uB7N+qrY6H4YnrzyzDczQ/I9DOnii/UYaTG3IXT17kSmrMsejxLMiX3gyE5xxSgzGyni//XYeSRDBCB6eTxsfe7qs63IRZbjZ6bbJDMrSuh4OH1mKhtmew/+A0WAebzj3PdI2q2uMT+qvSN8TjZO70mdkAvF75qakdk1NeG8vo3T8YhlWycpoiFW15A6LpXiM5eff+h4WcdR/V5EKxfvx+y+E9TnsToXKeJ3qt36nOTxgxrrFH2f8bbFZgyfL42viR3TQVcu9Y86YHx5iH/Q1oBG8S/fSDFnITfdHFQoB4y1qwGjSUkbEUg3r+Jl2tcol9kRmRJvzzLq2ShqN9PToQFxC1C/Wqa9RQDyeGhdY4BnRNniehSckmM9Isq3BJBh9v+KIEmNfFd1yFeoT98gAx05wt7sejC7SLJQKvvszW6XyNH/isxcmPUmIRutqDdT7+Iko76AjTnN6Rg5iaUNYq27M0YMOuRYEjkGYoFuq5VNUp9xg5XZkHU1yJOJmovG/pnrIpO4em/W9auxF1tlnU6fmWzTXtR2mN0GtuPh9JmJcvt7CDvece57iMxc43dAHheZprf20wxPHBkpx/cUUadsr+S4vp3D8YhpWyfyWIojGHlcsra2iv8Z+wkdR6dyeXwLUK9/P63PQ7zXvavr9XuVYy70+B+HfcbblpA4Pl9y1+ztuUEi6YknntBTsen3VQZrT+mZq1prsLKwNtiv50bSWpHv4nETbato1dMT5FRtMH+i2jCR+55E+n35wUq/niEapXjPEXYy1ujs7Awy00GjlrI2F4HFkdkBGpa8q8B2K+H4y8L6pTvDbqVMBPstnuqV4LE2RDQ1Jcno41z5C3qWrmb79u3Dhg0b9BwREVHIWM4RcyruxMv37eaYDiIiInIHgw4iIiJyBYMOIiIicgWDDiIiInIFgw4iIiJyBYMOIiIicgWDDiIiInIFgw4iIiJyBYMOIiIicgWDDiIiInIFgw4iIiJyBYMOmqTkn4a3/TG5tqrE/VExUVei/wBa7PyoGsP7kH9oLXrb46x33I6BaEfkn7aXn53+w3Bh+3QoHzhUYJVXtelC9fug/7ic+efsFbk/XR72/h3KndoiqP3u0DX3+FBgThNRwjDooCtDZimCdV6k6NmrVdbWIOrXTs6jYAQLzUCFLlDEyf9xD/qDQQSDrcjwbtQBiUO5ONlv7C4RZaL8VC3as4wAY+DQRgS2yHWD6Pe1I1sHBP4dO+E5ZZS3phdhow4kopcP0xYRhGzszkC+nJVSvdi7dKct6CGiRGDQQaOjrgR9oavPYa8mw7MWYVfrUa+45foLUHS4DNmiDvXFL/ZXZa8r6hWr/Wp4mKvnY7pQGfmKOHRlPYp924/Tmu14NCkbZYeLsEBlA8Q2Ypm1T9vVtX+HWH4otB/z5DcgyqwsglxfL0/aIU72mv29WlfugvMxsIt+PMK23RE9S5Kytl6czEuRq+eVNtGuLWawmIX1PqD+RbGtQ/nAiwEU3J+lSuWJv6SiDM1tA2juLsD6TKM4ZW0JKsubRUv9aEYJvKlGedb9tcCRZtFmh3KntojpUhGI1N/vUUtMcj84Fjp+RDR2DDpo9MrrgcdDV5PVOjgoOJaryuSrpFteTabAky5PHnIjcUIoBxq6A3IG/mPtKLgj8so9Bd66ftQWVqJV1FGqTzYhIhix9hG6YvXvWID61f1DymWbNnozVF1yWa7Y3iADhWbk6vLgloBxRSzfgzjvmevbr6zj3rdkHqe6bXhMLKssrBVX2/XWSTG6BhR16/3IK/7HbcGJItq+pQgZfqONwbtlywzGyd8ob8XOEY6BnfPxGHnb6AYC7XrKkOLJUD+dygPd4eWepTL3EECgw5g3eOApFD96AghbO9UDVYtD+WmHfToT++mQwQ0RJQqDDhq9CtvV5N2V6ufAi/VoKM+2roqzyxsQECc9ubw9IE9gItjwtaJWfZkPiJNJBjzDnnyjEcHIVn01LK5ScyvkPmQwU4kSq+vBuJKV+5Ztgm+9KNFLdFvR04x6nU1R7c0qU8FQ5PrqyrpDlKu5+Pat2I5T7PJRa13x56Ig3Zi0yLaj1rr6R2auaJkplK0wj7/jMbCL8XhE3XZKksGyniSihGDQQQmX7zOv+I2XylSIk2LGERFovBiA5w5xsl4tTspt4iSXnmudzCaEyjqE2hq0AoorlcxWhMYz9PusUQqxSfDxiMwmmBkOp3LP0vDyQHeD+L8n4uQfQOCw+GFmNkxmhsOhfL7DPonIPQw6KKHkyaTBWx0lJS1OHOLafOcRMSWu+lM8QP3j9ci4ezQnNbOrRujxYWd5JXIzZdahDDutsQZ+VHvNfYk2qb5+veSY7h6QJ6fDulvIJuWOAsD2HgYO7URZukePBYhv3yPqqEezzoj4DxRBnmJjotoe2laOkTDelTwhm9mjATQfMWp0PAZ2Tscjlm2diDpDXUPGcVHdaQ7l8vei6IA+8tbxTRG/O6F2qc+jQgarsvtDdx8J8vhhda7MT0Qvd2qLI5mJ05NElBAMOiixMkuNMRBmit4ahJmishsNZmZDZj7E1arziVmub9Qz9A6CSuCYrn9xPQpOlao6s7bKsRQL9H6zxXlFj5sQbZJjThboNjVbHRFZKFV3SOi6xEvtS965YHsPC44UoN+64o9z30OIAEW1RQ4kTYF3SwaKFhv1NS+tDd09MSLRdn9o26RjqmWqfL3V9o0IpOsaHY+BncPxiGlbB/JYrq7X29qOi1O53Bd091zE8YVuV+jzEMfv8QLU62OQLbY07uxxKHfapyMRwE10Jo5oikmavT03eK78BT1LV7N9+/Zhw4YNem6ykt0H1fDUGScjd03kvicRecdRYP2kvXU3UeQdO9We+igDmYmuTmM5R8ypuBMv37ebmQ6aeGG3eKpX6PZaogkh79g5ErpNl4gSg0EHTTj7LZ7Ga7hMgryddqIyDRO570kks3TKZzlkV0w9H0ZHlHAMOoiIiMgVDDqIiIjIFQw6iIiIyAXA/weqKInruEYQUgAAAABJRU5ErkJggg==;" vertex="1" parent="4J6jqHoMn3-eWlfdIwtx-17">
          <mxGeometry width="284.74" height="120" as="geometry" />
        </mxCell>
        <mxCell id="4J6jqHoMn3-eWlfdIwtx-15" value="" style="shape=image;verticalLabelPosition=bottom;labelBackgroundColor=default;verticalAlign=top;aspect=fixed;imageAspect=0;image=data:image/png,iVBORw0KGgoAAAANSUhEUgAAAJsAAAAgCAYAAAAFbAo6AAAAAXNSR0IArs4c6QAAAARnQU1BAACxjwv8YQUAAAAJcEhZcwAADsMAAA7DAcdvqGQAAAW+SURBVHhe7Zk9TCNHGIbfiyKSggZZooDoxAboIgTYxcVGFBaBiEhQIEHjS2HoAJuOCgqbgg7sUKQAJAiRItJglBBZOvkkhLkUDn9RigjQnpDC6dBZp5S5ZjMzO96dXa+NbcLmTjePNOzOz858M7z7fTPrBxoBEokLfMCvEsm9I8UmcQ0pNolrSLFJXEOKTeIaUmwS15Bik7iG5Tvb/v4+tre3cXx8zPJdXV0YHx9nV4nkrhhiW1hYYCKLRqNob29nlefn50gkEhgcHGSik0juAguj1KNRoX3z7Rr2XjTgi8TvLGX/bsTGxgb29vYMbyeR1ArzbFNTUxgdHcXP1w14dvkaQV8rq8zkLvF5awO+anrNwuvKygorl0hqgXk26rW6u7vx/eEVE1rdR3Us0fufTl6wsFqbZ8sjFfHB5zNTdDfP6yTlyO9G4Uue8dzbwBmWfVGkbni2BpjY6uvrWYbycd2H/M6K2KYiblKI+gaQ6Usjl8vxlEbw+QGRoOR9hImNnjaPjo4w2deKX579iTf/vGHp6W+XCPkfsoNCdSdS8hYMxqGs5pAY8vAyigfDkWHyV/I+wsQ2NjbGTp3TwU/w6NMG/Pj0D5a+/KyRlSWTSdamYk4y2PLP4XEnz5fiZFkIsaKL5i57l9ezcOJUZg/Ty6RVAaf2Dlhs8GH5hJez581ya9/6uMsnQpsie+whx26rvf4WbHYWz0e0l/R9QiNLwWZu7y4tI/WRFCkhpTRUG8+Ic6dY7Y3uqry8gG19eJ9loQcEit/v10ZGRjRyMtWur69Zove0jNZVw6tURPMmTnmuBMdLmte7pBmtaH56R3vFMqfaktdr68Oh7OWOtpTSnyCjajvTXi1i5J36sGG3gfS3c0xv9GfNvvicDPv0scxn+VjeiLbzkhVopwlxbN5etMU+tg3LGrK2Zt+l5rrEbKfY7eN5w34KKUuYeaf5ifNn8xFtIDaZ49nHd8YiNhJKtdnZWa2/v58lek/L7kNs1HhxMvoEC5OhxouLS3Eqs2Id97b2+oI6LpBF+AXE/oqftYqLIPZBRBwpElaZ8QniXIrXiiD272SvZczyYzHE9o72ll9PRxttsDBagO7LFhcXkU6nWaL3tfx64HmoABdqGbeah3oBZGMDphsmh4n4YRbqNW9SIWdJ05UPxLK8tBL+gnoYgNLEswL5KxIy2hTb3rIZir+0fc0tAQRamnnOxrWKrF8hPYh4oLQB6tVtwUdfK+WhbafbpCBwqJJZlLK3AsTQTPbYxuo52mvHGmbDm7y4DBax/Wd0BhE6zOCg5J5EX+gQOUCYJ1U9zdy2zxOgQltrMU+76fkAr6mE0uIp/bI4i/NWBGHYKRJREWVEKQrCbi8VDL91hAptXUG6sPZ7c2R2HCd7b1SYuzYqtAGoYfP/tv41ryrD/YgNHXg8D8QHHTadSX0j2dEbwtaEuOmuFvsbn8fBk2o8mwc9fQGrDTcpsrEmV/ayxBETvgnmd2OII4ieRl5QDY09CPq3EBY39eSfHd4MIVjBy0XXKhuLCQcKso4LcaCvh3kzz6MgEUcc3xlrTerXt/i9M3ZvmP81Y4qzUYGCLawJ8z/7QfB8RVHhDJlaPBv9eEt/UaDpLj9ReYYS7G1RJ0xXS0Ol2ss/fXTOEE+kImzUkVTJicbAg+EwFWzh+RjUtmo8m26jxYbBDHmraU0HZnLrUIQwP/AkiHSy1s82xNZkGnMXYaM/3wSwnpshI1UAWavcqsJeXv15/ful8VmpcRiJVetaICx4Kgc8Q+MIbZr2xJ4Tb8brnOaf6V1HiNeKzkSvJ+tWgWd7QDdu9CYQCBj7s8KP7mtra+xKRZfNVuM1JP87hTBZ8wtyD7BjAmFycpKdPO3QMloneZegJ8fbT4duY3g2ybsM/cAaJrssk8C8EGbfEqTYJK5xT6dRiaQYKTaJa0ixSVxDik3iGlJsEteQYpO4BPAvK5i1fQcPQygAAAAASUVORK5CYII=;" vertex="1" parent="4J6jqHoMn3-eWlfdIwtx-17">
          <mxGeometry y="160" width="155" height="32" as="geometry" />
        </mxCell>
        <mxCell id="4J6jqHoMn3-eWlfdIwtx-16" value="" style="shape=image;verticalLabelPosition=bottom;labelBackgroundColor=default;verticalAlign=top;aspect=fixed;imageAspect=0;image=data:image/png,iVBORw0KGgoAAAANSUhEUgAAAFkAAAAXCAYAAABgWeOzAAAAAXNSR0IArs4c6QAAAARnQU1BAACxjwv8YQUAAAAJcEhZcwAADsMAAA7DAcdvqGQAAAWcSURBVGhD7ZltaFNXGMf/WyHSERGaUUiotBNWO3brB4MfEgVFtky2ttBU2ZINklWbVkzaaabry4elbKuF2VSbymzKNGFbmjGTgk2Ztl9apmZQIlgjdil0N1iaTUzANawYKNtzk+MamzjUroFBfh9yz3mem9tz/s/LuaQv/EUgz7ryIrvmWUfyIueAvMg5IC9yDsiLnAOeLPK9ANyfGVDzhhK7diqxT2uCdTSE+DLz/w+JXLagvt0D/kl7uDeC47TX46PR1PxZmbYlteqfZnNGdpHDHjSRqP3+DVAd7cGZ0xYYtgNjXXo09foRZ7etJ/FpBzr0FozfY4Y1k0B0PoQQH815omQReQHeL3oQLNbgnMcG4zsKyHeooP7YhgvtCiwMt8E+lWD3rh+Ju7cwObuIh2y+dkTgDrlw1WUAJ2KmHJEp8uwYhm4Dbx76EFwhszGk+xqhkybgnQxQXgCxUTOVhxm+2SDcJ6qxV2grhh745tKCsMRj/Gw7Pnj7Udtph/PGSjk+eoZ7fAgtwj1ngwieVaKmy09eP7pryWYeQSxLKf/z91m2C9/btdMG/5wHnbV7aKxC06kJRFjmPvIHU1MgGoCTrXtvLa3h5qoafUD7Sm+ZtLfJCPMRibkRWA2qFR/PHKvIEDkRjSICOeSviZkljQIJJKV0jdxPaxlhOK1XIK4fwHdft0EV96D7xACCgs7LC/B9qkfntY1Qd7pw6Xs7DByPQZMJg7fTq8EP+7gYrSPXcfUIB65+DOePyskuxzHHGC53voWi1I1PgQeDP4igGXDhXFMlQsPtsE9maXDLITiFdcwrYfzqIi6e3o9F7wCtJI35W+C5Zgx4xnDpazMqKXgdpyjggu/BBE4aTsJXsB9fukZwwVgGv3so+bXVZIr85yIbPT1VLWZUVcggraiGsbmOguCBf5YcMz5YrwHqo2aod5ShqISD+hMLGqQ8nD+mqiGFDLqGakgL2LRQjJcLhZoWQbRJDLH4WepbCU1TNcqLZeC0WqjJMn4nS4rNTMAZFqXWtk2GolIFGlpNKGfuJK9r0FrLQUprKKqog66WbD/z1FCpivwjGF/iYOwwQFEqgXRbHY4Je89ChsjizWWQIoBQOD3TGMtRRMN0LaVFpSxEKSRpaSZ6SRAkgYdUorG7v9BIjvLSNJGyVgM9YxMbrhkpicKGBRvYIJOsa6PAStgwSTyEcVcPOg7qUU/tp8nF7MTCfIA+K1FekpoLpPaeSWZP3qJEFYng7aOSX2I2RuTyAJwRir6iklkEokik3Rf/XWhaMmykfl60eSvl4qqAsUCJtrzyDC2AYIJFl1Yq7eFylkR4SoqKy+gzAP631DxJLIqVnKcXgGPU6gISaDr70ffNGM5omYuQFAsa8ODT3n5Se88kU+SCcmhaNSgLD6H5sAWDo34EpsbgtujxPh1GMm0/jDvSI8bD3mtHYD6OyLQH/RcmkmWmepVcFXugK6WDsrcH3ikeMXqF8vXRMyNl0Km41NefRLJ1hBG6ySN0I4iYpAycFAh5h+CboXODXvGsfUI2PSecEurCBNzddFDPLCAyQ4fYGR9zCsQQnROuGyCi7S7OueAeTjqSSLfvAUcd3HrKgUB4AfyUg/YeYt7HyRSZEG0z4dthG3QyHiO9ZrR8ZIEjJIPa4sJ5OpgeLwo59Ack8JmqcOCwDddLTDhnraOiJShgOrsDrdt/haNNi5p3DbCH5Gh12KETgvAvFO1upGD+Aa9Fi+ZL98lCwf/cBMXSFXQfrEOjlw7TBkXq5udBJIfR3ga1WHieFo3no9ht1EHI7xQcqtrrwN2xUatQo/OnrVDVMJdASR26bAbIZx1o0erRPSnBe0d2M+fjrOn3ZOEVqqYLaB3uQVUxM+bJIGsm5/lvyYucA/L/fsoB+UzOAXmRc0Be5HUH+BuThhXpEtkw8wAAAABJRU5ErkJggg==;" vertex="1" parent="4J6jqHoMn3-eWlfdIwtx-17">
          <mxGeometry y="137" width="89" height="23" as="geometry" />
        </mxCell>
      </root>
    </mxGraphModel>
  </diagram>
</mxfile>
